<svg xmlns="http://www.w3.org/2000/svg" viewBox="0 0 867.61 225.58"><defs><style>.cls-1{fill:#223c8c;}</style></defs><g id="Layer_2" data-name="Layer 2"><g id="Layer_3" data-name="Layer 3"><path class="cls-1" d="M132.56,157.19l-7.13,7.12v34.15l7.13,7.13H157.7l7.13-7.13V164.31l-7.13-7.12Zm30.27,40.44-6,6H133.39l-6-6V165.14l6-5.95h23.48l6,5.95ZM8.56,137.2v22H59.74l2.75,2.75V169l-2.63,2.74H21.61L5,188.38v37.2h83v-22H31.05V197l4.35-4.35h39l14.16-14.16V151.36L74.4,137.2Zm78,40.44-13,13h-39l-5.52,5.52v9.44H85.94v18H7V189.21l15.46-15.46H60.71l3.78-3.93v-8.71l-3.92-3.92h-50v-18h63l13,13Zm33.66-40.44-18.85,18.85v50.68l18.85,18.85H170l18.85-18.85V156.05L170,137.2Zm66.67,68.71-17.68,17.67H121.05l-17.68-17.67v-49l17.68-17.67h48.16l17.68,17.67ZM364.3,178.55l9.09-9.09v-18.1L359.23,137.2H294v22h50.57l2.74,2.75V167l-3.11,3.12H310.67V191h35.51l3.61,3.61v5l-4,4H292.28v22h69.17l14.4-14.4V190.11Zm9.55,31.8-13.23,13.23H294.28v-18h52.36l5.15-5.15v-6.63L347,189H312.67V172.15H345l4.29-4.29v-6.75l-3.91-3.92H296v-18H358.4l13,13v16.45l-9.92,9.92,12.38,12.39ZM215.27,137.2v2h52.55l13,13v25.46l-13,13h-39l-5.52,5.52v9.44h56.89v18h-79V189.21l15.46-15.46H255l3.78-3.93v-8.71l-3.92-3.92h-50v-9.14h-2v11.14H254l2.75,2.75V169l-2.63,2.74H215.86l-16.63,16.63v37.2h83v-22H225.3V197l4.35-4.35h39l14.15-14.16V151.36L268.65,137.2Z"/><path class="cls-1" d="M131.33,23.21a5.2,5.2,0,0,0-2.85,1.07,8.36,8.36,0,0,0-2.7,3.77L101.43,88.7A14.93,14.93,0,0,0,100.15,95a9,9,0,0,0,1.28,4.49,8.06,8.06,0,0,0,3,2.78,11.58,11.58,0,0,0,3.7,1.28,13.13,13.13,0,0,0,5.27-.64,30.41,30.41,0,0,0,5.55-2.21l11.82-6.41L132,100l-17.65,10a25.16,25.16,0,0,1-5.77,2.28,21.86,21.86,0,0,1-13-.57,16.4,16.4,0,0,1-5.69-3.56,13.11,13.11,0,0,1-3.56-5.34,17.37,17.37,0,0,1-.92-6,27.39,27.39,0,0,1,.92-6.4,49.68,49.68,0,0,1,2.14-6.41l5.83-14.09a28.07,28.07,0,0,1-4.41.85,32.6,32.6,0,0,1-4.56.28,31.67,31.67,0,0,1-5.12-.42,39.21,39.21,0,0,1-5-1.21,19,19,0,0,1-4.7-1.93L57.44,89.7a65.79,65.79,0,0,1-7,9.89,45.9,45.9,0,0,1-8.25,7.62,34.29,34.29,0,0,1-9.26,4.7,25.4,25.4,0,0,1-10,1.14,25.19,25.19,0,0,1-6.13-1.22,28.93,28.93,0,0,1-6.54-3,24.19,24.19,0,0,1-5.7-4.92,18.13,18.13,0,0,1-3.7-7.12,20.74,20.74,0,0,1-.64-9.39,21.82,21.82,0,0,1,8-13.53,14,14,0,0,1,5.91-2.84,16.42,16.42,0,0,1,6.76-.29A12.66,12.66,0,0,1,26.4,73a9.45,9.45,0,0,1,3.28,4.63,12.2,12.2,0,0,1,0,6.9,6.65,6.65,0,0,0-3.49-1.28,10.83,10.83,0,0,0-5.41.57,10.54,10.54,0,0,0-4.84,3.7c-1.38,1.81-2.07,4.41-2.07,7.83a10,10,0,0,0,.93,4,11.86,11.86,0,0,0,2.71,3.84,13,13,0,0,0,4.27,2.71,11.64,11.64,0,0,0,5.48.71,13.36,13.36,0,0,0,8.47-4.56,55.7,55.7,0,0,0,6.48-8.68L61.57,61.51l-4-3.13Q54.31,56,50.75,53a29,29,0,0,0-7.26-4.56c-3.9-1.71-7.38-2.35-10.47-1.92A17.38,17.38,0,0,0,24.69,50a8.52,8.52,0,0,0-2.56,3,16.69,16.69,0,0,0-1.28,3.41,21.42,21.42,0,0,0-.57,3.42c-.09,1.14-.19,2.13-.28,3a25.57,25.57,0,0,1-3.21-2.35,14.67,14.67,0,0,1-3.06-3.63A13.56,13.56,0,0,1,12,51.9a12.35,12.35,0,0,1,.86-6.2,18.14,18.14,0,0,1,7-9,23.88,23.88,0,0,1,9.26-3.77,28.25,28.25,0,0,1,11.74.43,34.83,34.83,0,0,1,9.47,4.13c1.42.95,2.78,1.94,4.06,3s2.54,2.09,3.77,3.13,2.49,2.35,3.77,3.63l4.92,4.91L73.38,41q3.28-5.41,7.41-11.11a34.7,34.7,0,0,1,9.54-9.11,33.16,33.16,0,0,1,11.74-4.7,71,71,0,0,1,12-1h20.36Zm-21.64.29-4.41.64a20.78,20.78,0,0,0-5.13,1.49,15.86,15.86,0,0,0-5,3A36.64,36.64,0,0,0,91,33a40.51,40.51,0,0,0-3.49,5c-1,1.75-2,3.44-3,5L75.24,59.09a31,31,0,0,0,3,2.13c.85.57,1.82,1.17,2.91,1.78s2.16,1.17,3.21,1.64a13.31,13.31,0,0,0,3.7.93,35.45,35.45,0,0,0,3.7.21,28.74,28.74,0,0,0,3-.14,10.12,10.12,0,0,0,1.71-.29l17.51-42A22.3,22.3,0,0,0,109.69,23.5Z"/><path class="cls-1" d="M184.15,109.2a29.82,29.82,0,0,1-5.7,2.63,19.39,19.39,0,0,1-9.39.79,10.92,10.92,0,0,1-4.63-1.78,18.74,18.74,0,0,1-3.2-2.78,11.13,11.13,0,0,1-2.42-3.56,31.46,31.46,0,0,1-3.49,3.21,24.68,24.68,0,0,1-5.13,3.13,28.27,28.27,0,0,1-6.62,2.06,21.21,21.21,0,0,1-8.11-.14,16.29,16.29,0,0,1-5.34-2.21,12.42,12.42,0,0,1-4.27-4.48,14.68,14.68,0,0,1-1.78-6.91,23.71,23.71,0,0,1,2.13-9.61l8-19.64q1.27-3.27.57-5.13A2.81,2.81,0,0,0,133,63.29a7.21,7.21,0,0,0-1.93-.36h-3.13l1.71-5.27h7.26c3.13,0,5.41.46,6.83,1.36A13.06,13.06,0,0,1,147,61.79a7.69,7.69,0,0,1,1.14,4.56A13.16,13.16,0,0,1,147,71.76l-7.83,19.08a55.33,55.33,0,0,0-1.85,5.26,6.7,6.7,0,0,0,.43,5.27q1.56,3,4,3.35a32.35,32.35,0,0,0,4.56.35A7.83,7.83,0,0,0,149.2,104a32.69,32.69,0,0,0,3.2-2.06c1.14-1,2.37-1.94,3.7-3l17.09-41.29h12.95L169.63,98.81c-.1.09,0,.33.14.71s.43.69.71,1.21a9.17,9.17,0,0,0,1.57,1.92,5.58,5.58,0,0,0,5.26,1.78,16.73,16.73,0,0,0,6-2.2L197,93.54l1.71,6.69Z"/><path class="cls-1" d="M252.63,109.63a22.37,22.37,0,0,1-5.63,2.42,17,17,0,0,1-5.48.71,8.56,8.56,0,0,1-2.63-.43,16.15,16.15,0,0,1-2.49-1l-2.57-1.28L221,140.1a20.23,20.23,0,0,1-3.34,5.19,21.09,21.09,0,0,1-5.56,4.63,17,17,0,0,1-7,2.21,13.19,13.19,0,0,1-7.9-2.07,10.37,10.37,0,0,1-3-2.63,12.52,12.52,0,0,1-2-3.78,14.41,14.41,0,0,1-.71-4.55,13.13,13.13,0,0,1,.85-4.56,16.79,16.79,0,0,1,5.41-7.61,69.2,69.2,0,0,1,7.55-5.2q4-2.28,7.62-4t5.62-2.56l4.41-10a30,30,0,0,1-12.1,6.7,23.36,23.36,0,0,1-11.67.42,13.08,13.08,0,0,1-5.7-2.91,15.28,15.28,0,0,1-3.56-4.77,19.82,19.82,0,0,1-1.7-5.56,19.62,19.62,0,0,1-.15-5.26,46.47,46.47,0,0,1,4.77-16q3.78-7.34,12.46-14.31a29.37,29.37,0,0,1,5.2-3.34,38.29,38.29,0,0,1,6.12-2.5,30.85,30.85,0,0,1,6.41-1.28,18.29,18.29,0,0,1,6,.43c.75.19,1.51.36,2.27.5a10.74,10.74,0,0,1,2.42.78,10.64,10.64,0,0,1,2.71,1.85,22.87,22.87,0,0,1,3.13,3.7l2.42-6h13.38L238.1,100a19.7,19.7,0,0,0,2,2,14.43,14.43,0,0,0,2.06,1.42,8.5,8.5,0,0,0,2.49,1,8.22,8.22,0,0,0,4.13-.21,16.87,16.87,0,0,0,4-1.78l13.81-8.69,1.42,6.55Zm-43.57,16.44c-2.09,1.38-3.46,2.3-4.13,2.78a31.27,31.27,0,0,0-2.84,2.56,13.54,13.54,0,0,0-2.57,3.56,11.65,11.65,0,0,0-1,4.27,4.07,4.07,0,0,0,2,3.84,4.89,4.89,0,0,0,3.49,1,5.11,5.11,0,0,0,2.56-1.28,8.94,8.94,0,0,0,1.71-2.14,10.65,10.65,0,0,0,.78-1.56l6.84-16.66A41.85,41.85,0,0,0,209.06,126.07ZM233.48,66a11.59,11.59,0,0,0-3.92-2.28,11.21,11.21,0,0,0-3.84-.56,14.6,14.6,0,0,0-3,.35,19.6,19.6,0,0,0-9.11,5.34,47.22,47.22,0,0,0-7.83,9.75A56.34,56.34,0,0,0,203,84.43,34.81,34.81,0,0,0,201,91a19.85,19.85,0,0,0-.29,6.19,7.89,7.89,0,0,0,2.21,4.77,7.12,7.12,0,0,0,2.78,1.57,11.73,11.73,0,0,0,3.2.42,21.16,21.16,0,0,0,10.46-3.41,28.71,28.71,0,0,0,7.76-7l9.4-22.64A11.08,11.08,0,0,0,233.48,66Z"/><path class="cls-1" d="M314.56,109.2a29.82,29.82,0,0,1-5.7,2.63,19.42,19.42,0,0,1-9.4.79,10.93,10.93,0,0,1-4.62-1.78,19.23,19.23,0,0,1-3.21-2.78,11.3,11.3,0,0,1-2.42-3.56,30.38,30.38,0,0,1-3.48,3.21,25.22,25.22,0,0,1-5.13,3.13A28.42,28.42,0,0,1,274,112.9a21.26,21.26,0,0,1-8.12-.14,16.33,16.33,0,0,1-5.33-2.21,12.42,12.42,0,0,1-4.27-4.48,14.56,14.56,0,0,1-1.78-6.91,23.71,23.71,0,0,1,2.13-9.61l8-19.64q1.29-3.27.57-5.13a2.79,2.79,0,0,0-1.78-1.49,7.09,7.09,0,0,0-1.92-.36h-3.13L260,57.66h7.26c3.13,0,5.41.46,6.83,1.36a13.06,13.06,0,0,1,3.28,2.77,7.69,7.69,0,0,1,1.14,4.56,13.16,13.16,0,0,1-1.14,5.41l-7.83,19.08a55.33,55.33,0,0,0-1.85,5.26,6.74,6.74,0,0,0,.42,5.27c1.05,2,2.37,3.11,4,3.35a32.35,32.35,0,0,0,4.56.35A7.73,7.73,0,0,0,279.6,104a32.82,32.82,0,0,0,3.21-2.06c1.14-1,2.37-1.94,3.7-3l17.08-41.29h13L300,98.81c-.09.09,0,.33.15.71s.42.69.71,1.21a9.06,9.06,0,0,0,1.56,1.92,5.6,5.6,0,0,0,5.27,1.78,16.73,16.73,0,0,0,6-2.2l13.67-8.69,1.71,6.69Z"/><path class="cls-1" d="M371.64,97.81a24,24,0,0,1-5.41,7,30.57,30.57,0,0,1-6.9,4.7,27.35,27.35,0,0,1-7.19,2.42,22.69,22.69,0,0,1-6.26.35,19.37,19.37,0,0,1-10.4-4,17.61,17.61,0,0,1-6-8,76.16,76.16,0,0,1-10.75,7.41c-3,1.61-4.91,2.61-5.76,3l-2.14.72a30.2,30.2,0,0,1-5.41,1.14l3.28-8c.85-.38,1.76-.76,2.7-1.14a21.19,21.19,0,0,0,4.56-2.7c.09-.19.62-1,1.56-2.28s2.14-3,3.56-5l4.84-6.91q2.71-3.84,5.41-7.83,6.56-9.25,14.53-20.93h19.5c-.28,1.05-.64,2.16-1.07,3.35a3.28,3.28,0,0,0,.22,3.06q2.84,3.84,5.26,7.76a35.56,35.56,0,0,1,3.71,8,23.07,23.07,0,0,1,1,8.47A25.09,25.09,0,0,1,371.64,97.81ZM359.12,81.72c-.48-.66-1.12-1.54-1.93-2.63a39.33,39.33,0,0,1-2.42-3.77,23.15,23.15,0,0,1-2-4.77,15.31,15.31,0,0,1-.5-5.77L335.06,88.7l6,1.57q-2.15,4.26-1.86,7A7.57,7.57,0,0,0,341,101.8a8.07,8.07,0,0,0,4,2.35,18.13,18.13,0,0,0,4.56.64,11.87,11.87,0,0,0,7.69-2.42,12.49,12.49,0,0,0,4.12-5.91A16.91,16.91,0,0,0,362,89,15.26,15.26,0,0,0,359.12,81.72Z"/><path class="cls-1" d="M416.63,106.92a41.13,41.13,0,0,1-8.89,4.63,26.78,26.78,0,0,1-7.19,1.21,25.77,25.77,0,0,1-9.61-1.64,15.81,15.81,0,0,1-7.76-5.76,17.58,17.58,0,0,1-2.71-7,17.1,17.1,0,0,1,1.43-9.89l11-25.49H380l2.14-5.12h13l10.39-24.92H419.2L408.66,57.81h11.11l-2.14,5.12H406.38L395.14,89.41a24.44,24.44,0,0,0-1.5,5.7,8,8,0,0,0,.78,5.41,8.24,8.24,0,0,0,4.06,3.7,11.91,11.91,0,0,0,5.13.85,17.08,17.08,0,0,0,5-1,17.29,17.29,0,0,0,3.63-1.71l13.38-8.69,1.57,6.55Z"/><path class="cls-1" d="M451,106.1h18.37V24.67H450.81V.93h47.85V106.1H517v23.75H451Z"/><path class="cls-1" d="M543.37,0h32.27V23.74H559.88l-12.8,12.8L526.3,17.62ZM526.49,106.1l60.28-59V0h8.91l20.4,20.4V55.83l-76.24,74H526.49Zm29.31,23.75,24.48-23.75h38.77v23.75Z"/><path class="cls-1" d="M626.47,69.93h61.77V93.67H626.47Z"/><path class="cls-1" d="M697.7,106.1h18.36V24.67H697.51V.93h47.86V106.1h18.36v23.75h-66Z"/><path class="cls-1" d="M804.73,107h22.44v23.74H788.22l-17.07-17.62,20.78-18.92ZM779.13.93h67.52L815.3,24.67H779.13ZM847.2,130.77h-8.9V82.36l-7.61-7.61H793.23v-20L863.9.93v25.6L827,54.54H847.2l20.41,20.77v35.25Z"/></g></g></svg>