<svg xmlns="http://www.w3.org/2000/svg" viewBox="0 0 213.9 64.32"><defs><style>.cls-1{fill:#223c8c;}</style></defs><g id="Layer_2" data-name="Layer 2"><g id="Layer_3" data-name="Layer 3"><path class="cls-1" d="M51.72,41.85A228.22,228.22,0,0,1,7.87,48a5.13,5.13,0,0,0-4.82,3.89L0,64.24H29.28q9.07,0,14.91-4a18.52,18.52,0,0,0,7.64-11.33A12.36,12.36,0,0,0,51.72,41.85Z"/><path class="cls-1" d="M83.53,8.37H66L60.67,30.05c6.32-2.51,12.92-5.44,19.71-8.87Z"/><path class="cls-1" d="M103.08,25.1c-4.8,2-11.71,4.78-20.1,7.68L75.92,64.24h34.41L113.59,51H96.71Z"/><path class="cls-1" d="M58.15,40.27l-5.91,24H69.76L77,34.78C71.23,36.66,64.89,38.54,58.15,40.27Z"/><path class="cls-1" d="M54.54,12.09Q50.54,8.36,42,8.36H13.31l-5.16,21h0l-3,12.34a2.12,2.12,0,0,0,2.33,2.61,197.9,197.9,0,0,0,19.8-3.63h0l.07,0c4.41-1,9.23-2.3,14.4-3.87a21.66,21.66,0,0,0,10.45-5.48A17.26,17.26,0,0,0,56.78,23Q58.55,15.82,54.54,12.09ZM54.08,22.3a14.34,14.34,0,0,1-3.88,7A18.89,18.89,0,0,1,41,34h0l-5,1.27c-6.7,1.47-13.73-.84-16.82-7a11.69,11.69,0,0,1-.87-2.2l.84-3.78a.77.77,0,0,0-.36-.89l-1.71-.92-.37-.19.33-1.7a.42.42,0,0,0-.42-.52l-2.85,0,1.72-7H42c5,0,8.55,1,10.67,3C53.34,14.77,55.45,16.74,54.08,22.3Z"/><path class="cls-1" d="M114.51,5.86s-6.61.47-11.46.67a13.4,13.4,0,0,0-7.41,2.25L106.07,10Z"/><path class="cls-1" d="M116.37,7.29c6.5-3.5,7.42-3.91,7.42-3.91l1.54-.74c.83-.37,1.66-.73,2.5-1.08s1.47-.62,2.23-.88A11.07,11.07,0,0,1,133.24,0a8.74,8.74,0,0,1,2.6.25,11.94,11.94,0,0,0,1.86.43,3.52,3.52,0,0,1,1.6.52,1.43,1.43,0,0,1,.09,2.21,19.46,19.46,0,0,1-4.84,3.51C122,13.3,121,13.47,121,13.47s-7.17,13.46-8.22,16.06-5.15,3.56-5.15,3.56c.58-1.34,4.08-17,4.08-17C102.84,20.36,67.6,32.8,67.6,32.8Z"/><path class="cls-1" d="M130.09,29a1.74,1.74,0,0,1,.14,1.3,2.5,2.5,0,0,1-.6,1.12,3.11,3.11,0,0,1-1.13.79,3.81,3.81,0,0,1-1.49.29h-3.26l2-8.16h3.11a2.86,2.86,0,0,1,1.36.28,1.51,1.51,0,0,1,.72.76,1.72,1.72,0,0,1,0,1.06,2.35,2.35,0,0,1-.66,1.17,3,3,0,0,1-1.18.69A1.29,1.29,0,0,1,130.09,29Zm-1.78,2.08a1.52,1.52,0,0,0,.61-.92,1,1,0,0,0-.17-.95,1.29,1.29,0,0,0-1-.35H126l-.63,2.54h1.81A1.93,1.93,0,0,0,128.31,31.12Zm-2.06-3.32h1.66a2,2,0,0,0,1.1-.3,1.37,1.37,0,0,0,.58-.86.86.86,0,0,0-.16-.86,1.23,1.23,0,0,0-1-.31h-1.65Z"/><path class="cls-1" d="M135.33,24.38l-2,8.16H132l2-8.16Z"/><path class="cls-1" d="M137.53,31.46h2.76L140,32.54h-4.09l2-8.16h1.34Z"/><path class="cls-1" d="M143.42,31.46h2.76l-.27,1.08h-4.1l2-8.16h1.34Z"/><path class="cls-1" d="M151.05,24.38l-2,8.16H147.7l2-8.16Z"/><path class="cls-1" d="M158.35,32.54H157l-2.52-6.1-1.5,6.1h-1.34l2-8.18H155l2.53,6.09,1.5-6.09h1.33Z"/><path class="cls-1" d="M168.28,26.72a1.56,1.56,0,0,0-.65-.92,2.34,2.34,0,0,0-1.23-.31,3.38,3.38,0,0,0-1.53.36,3.67,3.67,0,0,0-1.25,1,3.92,3.92,0,0,0-.74,1.55,3,3,0,0,0,0,1.55,1.81,1.81,0,0,0,.74,1,2.31,2.31,0,0,0,1.35.37,3.24,3.24,0,0,0,1.93-.61,3.67,3.67,0,0,0,1.24-1.66h-3.06l.26-1.07h4.49l-.25,1.05a5.39,5.39,0,0,1-1.11,1.75,5.74,5.74,0,0,1-1.73,1.27,4.68,4.68,0,0,1-2.06.48,3.48,3.48,0,0,1-2-.54,2.79,2.79,0,0,1-1.15-1.48,3.81,3.81,0,0,1,0-2.15,5.15,5.15,0,0,1,1.08-2.15,5.88,5.88,0,0,1,1.88-1.49,5.1,5.1,0,0,1,2.23-.53,3.48,3.48,0,0,1,2.16.64,2.63,2.63,0,0,1,1,1.81Z"/><path class="cls-1" d="M172,32.33a1.66,1.66,0,0,1-.83-.82,1.81,1.81,0,0,1-.07-1.23h1.43a1,1,0,0,0,.2.87,1.18,1.18,0,0,0,1,.34,2,2,0,0,0,1.16-.33,1.51,1.51,0,0,0,.6-.87.83.83,0,0,0-.07-.67,1.22,1.22,0,0,0-.51-.4,8,8,0,0,0-.91-.3,6.54,6.54,0,0,1-1.19-.43,1.49,1.49,0,0,1-.69-.67A1.71,1.71,0,0,1,172,26.6a2.77,2.77,0,0,1,.66-1.24,3.19,3.19,0,0,1,1.18-.81,4.06,4.06,0,0,1,1.54-.28,2.52,2.52,0,0,1,1.8.59,1.74,1.74,0,0,1,.43,1.63h-1.48a.82.82,0,0,0-.23-.76,1.23,1.23,0,0,0-.94-.32,1.79,1.79,0,0,0-1,.29,1.36,1.36,0,0,0-.58.85.73.73,0,0,0,.08.61,1.21,1.21,0,0,0,.49.39,7.88,7.88,0,0,0,.88.3,8.06,8.06,0,0,1,1.22.45,1.64,1.64,0,0,1,.7.68,1.76,1.76,0,0,1,.05,1.24,2.78,2.78,0,0,1-.63,1.18,3.33,3.33,0,0,1-1.19.88,3.63,3.63,0,0,1-1.59.34A3.19,3.19,0,0,1,172,32.33Z"/><path class="cls-1" d="M122.75,42h2.76l-.27,1.08h-4.1l2-8.16h1.34Z"/><path class="cls-1" d="M128.48,42.65a2.73,2.73,0,0,1-1.15-1.49,3.9,3.9,0,0,1,0-2.15,5.29,5.29,0,0,1,1.09-2.15,5.65,5.65,0,0,1,1.88-1.49,5.1,5.1,0,0,1,2.23-.53,3.58,3.58,0,0,1,2,.53,2.81,2.81,0,0,1,1.15,1.49,3.81,3.81,0,0,1,0,2.15,5.57,5.57,0,0,1-3,3.64,5,5,0,0,1-2.24.54A3.49,3.49,0,0,1,128.48,42.65Zm3.78-1a3.71,3.71,0,0,0,1.26-1,4.33,4.33,0,0,0,.75-1.59,3.19,3.19,0,0,0,0-1.59,1.77,1.77,0,0,0-.74-1,2.31,2.31,0,0,0-1.35-.37,3.26,3.26,0,0,0-1.53.37,3.56,3.56,0,0,0-1.25,1,4.25,4.25,0,0,0-.75,1.59,3.2,3.2,0,0,0,0,1.59,1.82,1.82,0,0,0,.73,1,2.36,2.36,0,0,0,1.36.37A3.26,3.26,0,0,0,132.26,41.65Z"/><path class="cls-1" d="M144.08,37.29a1.53,1.53,0,0,0-.65-.92,2.22,2.22,0,0,0-1.23-.31,3.38,3.38,0,0,0-1.53.36,3.76,3.76,0,0,0-1.25,1,4.06,4.06,0,0,0-.74,1.55,3,3,0,0,0,0,1.55,1.76,1.76,0,0,0,.73,1,2.44,2.44,0,0,0,1.36.36,3.12,3.12,0,0,0,1.92-.61,3.59,3.59,0,0,0,1.24-1.65h-3.06l.26-1.07h4.5l-.26,1a5.25,5.25,0,0,1-1.11,1.74,5.61,5.61,0,0,1-1.73,1.28,4.67,4.67,0,0,1-2.06.47,3.5,3.5,0,0,1-2-.53,2.75,2.75,0,0,1-1.14-1.49,3.69,3.69,0,0,1,0-2.14,5.17,5.17,0,0,1,1.09-2.15,5.55,5.55,0,0,1,1.88-1.49,5,5,0,0,1,2.22-.53,3.48,3.48,0,0,1,2.16.64,2.57,2.57,0,0,1,1,1.81Z"/><path class="cls-1" d="M151.47,41.44h-3.42l-1,1.66h-1.4l4.93-8.17h1.55l.91,8.17h-1.4Zm-.11-1.1L151,36.55l-2.27,3.79Z"/><path class="cls-1" d="M161.62,43.1h-1.33L157.76,37l-1.5,6.09h-1.34l2-8.17h1.34L160.8,41l1.5-6.08h1.34Z"/><path class="cls-1" d="M121.89,45.51l-2,8.16h-1.34l2-8.16Z"/><path class="cls-1" d="M129.19,53.67h-1.34l-2.52-6.09-1.51,6.09h-1.33l2-8.17h1.34l2.53,6.08,1.5-6.08h1.33Z"/><path class="cls-1" d="M138.79,45.51l-.27,1.09h-2.17l-1.74,7.07h-1.34L135,46.6h-2.18l.26-1.09Z"/><path class="cls-1" d="M141.77,46.59l-.59,2.4H144l-.27,1.09h-2.82l-.62,2.5h3.17l-.27,1.09h-4.51l2-8.17h4.51l-.27,1.09Z"/><path class="cls-1" d="M149.77,53.67l-1.08-3.26h-1l-.8,3.26h-1.34l2-8.16h2.82a3,3,0,0,1,1.51.33,1.62,1.62,0,0,1,.76.88,2.14,2.14,0,0,1,0,1.23,3.12,3.12,0,0,1-.82,1.45,3.16,3.16,0,0,1-1.64.89l1.18,3.38Zm-1.83-4.33h1.47a1.92,1.92,0,0,0,1.23-.38,1.73,1.73,0,0,0,.63-1,1.09,1.09,0,0,0-.13-1,1.28,1.28,0,0,0-1-.36h-1.48Z"/><path class="cls-1" d="M160.3,53.67H159l-2.53-6.09-1.5,6.09h-1.34l2-8.17h1.33l2.53,6.08L161,45.5h1.34Z"/><path class="cls-1" d="M168,52h-3.41l-1,1.67h-1.4l4.94-8.17h1.55l.91,8.17h-1.41Zm-.1-1.09-.39-3.79-2.28,3.79Z"/><path class="cls-1" d="M177.82,45.51l-.27,1.09h-2.17l-1.75,7.07H172.3L174,46.6h-2.19l.27-1.09Z"/><path class="cls-1" d="M181.06,45.51l-2,8.16h-1.34l2-8.16Z"/><path class="cls-1" d="M183.4,53.22a2.81,2.81,0,0,1-1.15-1.49,3.85,3.85,0,0,1,0-2.16,5.23,5.23,0,0,1,1.09-2.15,5.64,5.64,0,0,1,1.88-1.48,4.91,4.91,0,0,1,2.22-.54,3.53,3.53,0,0,1,2,.54,2.76,2.76,0,0,1,1.14,1.48,3.81,3.81,0,0,1,0,2.15,5.25,5.25,0,0,1-1.08,2.16,5.55,5.55,0,0,1-1.88,1.49,5.07,5.07,0,0,1-2.23.53A3.6,3.6,0,0,1,183.4,53.22Zm3.79-1a3.71,3.71,0,0,0,1.25-1.06,4.18,4.18,0,0,0,.75-1.59,3,3,0,0,0,0-1.58,1.78,1.78,0,0,0-.73-1.05,2.42,2.42,0,0,0-1.36-.36,3.38,3.38,0,0,0-1.53.36A3.68,3.68,0,0,0,184.35,48a4.21,4.21,0,0,0-.75,1.58,3.08,3.08,0,0,0,0,1.59,1.8,1.8,0,0,0,.73,1.06,2.31,2.31,0,0,0,1.35.37A3.33,3.33,0,0,0,187.19,52.22Z"/><path class="cls-1" d="M198.41,53.67h-1.34l-2.53-6.09L193,53.67h-1.33l2-8.17h1.34l2.53,6.08,1.49-6.08h1.34Z"/><path class="cls-1" d="M206.09,52h-3.42l-1,1.67h-1.39l4.93-8.17h1.55l.91,8.17h-1.41ZM206,50.91l-.39-3.79-2.27,3.79Z"/><path class="cls-1" d="M211.14,52.59h2.76l-.26,1.08h-4.1l2-8.16h1.34Z"/><path class="cls-1" d="M121.27,62.57h-3.42l-1,1.67h-1.39l4.93-8.17h1.55l.91,8.17h-1.41Zm-.11-1.09-.39-3.79-2.27,3.79Z"/><path class="cls-1" d="M128.07,56.08l-2,8.16h-1.34l2-8.16Z"/><path class="cls-1" d="M132.9,64.24,131.83,61h-1L130,64.24h-1.34l2-8.16h2.82a3,3,0,0,1,1.51.33,1.58,1.58,0,0,1,.76.88,2.22,2.22,0,0,1,0,1.23A3.21,3.21,0,0,1,135,60a3.31,3.31,0,0,1-1.65.89l1.19,3.38Zm-1.83-4.34h1.48a1.94,1.94,0,0,0,1.23-.37,1.87,1.87,0,0,0,.63-1,1.08,1.08,0,0,0-.14-1,1.28,1.28,0,0,0-1.05-.36h-1.48Z"/><path class="cls-1" d="M143.26,59.68a3,3,0,0,1-1.16.9,4.06,4.06,0,0,1-1.74.35h-1.48l-.81,3.31h-1.34l2-8.16h2.82a3.13,3.13,0,0,1,1.51.32,1.62,1.62,0,0,1,.76.88,2.21,2.21,0,0,1,0,1.23A3.23,3.23,0,0,1,143.26,59.68Zm-1.41-.19a1.66,1.66,0,0,0,.62-1c.22-.89-.17-1.34-1.18-1.34h-1.48l-.66,2.67h1.48A2,2,0,0,0,141.85,59.49Z"/><path class="cls-1" d="M146.2,63.79a2.79,2.79,0,0,1-1.15-1.5,3.8,3.8,0,0,1,0-2.15A5.35,5.35,0,0,1,146.11,58,5.62,5.62,0,0,1,148,56.51a5,5,0,0,1,2.23-.54,3.52,3.52,0,0,1,2,.54A2.79,2.79,0,0,1,153.34,58a3.9,3.9,0,0,1,0,2.15,5.39,5.39,0,0,1-1.08,2.15,5.68,5.68,0,0,1-1.88,1.5,5.11,5.11,0,0,1-2.24.53A3.57,3.57,0,0,1,146.2,63.79Zm3.78-1a3.62,3.62,0,0,0,1.25-1.06,4,4,0,0,0,.75-1.59,3.16,3.16,0,0,0,0-1.58,1.76,1.76,0,0,0-.74-1.05,2.38,2.38,0,0,0-1.35-.36,3.45,3.45,0,0,0-1.54.36,3.57,3.57,0,0,0-1.25,1.05,4,4,0,0,0-.74,1.58,3.2,3.2,0,0,0,0,1.59,1.85,1.85,0,0,0,.73,1.06,2.44,2.44,0,0,0,1.36.37A3.39,3.39,0,0,0,150,62.79Z"/><path class="cls-1" d="M158.74,64.24,157.66,61h-1l-.8,3.27H154.5l2-8.16h2.82a3,3,0,0,1,1.51.33,1.62,1.62,0,0,1,.76.88,2.22,2.22,0,0,1,0,1.23,3.24,3.24,0,0,1-2.47,2.34l1.19,3.38Zm-1.83-4.34h1.48a1.89,1.89,0,0,0,1.22-.37,1.76,1.76,0,0,0,.63-1,1.09,1.09,0,0,0-.13-1,1.28,1.28,0,0,0-1.05-.36h-1.48Z"/><path class="cls-1" d="M169.63,56.08l-.27,1.09h-2.17l-1.75,7.07h-1.33l1.74-7.07h-2.19l.27-1.09Z"/></g></g></svg>