<?xml version="1.0" encoding="UTF-8"?><svg id="Layer_2" xmlns="http://www.w3.org/2000/svg" viewBox="0 0 536.07 413.92"><defs><style>.cls-1{fill:#f1b51c;}.cls-2{fill:#fff;}.cls-3{fill:#939598;}.cls-4{fill:#223c8c;}</style></defs><g id="Layer_3"><g><path class="cls-3" d="M515.64,230.65c-4.33-61.69-31.26-119.03-76.2-161.96C393.06,24.39,332.19,0,268.03,0S143.01,24.39,96.63,68.69C51.69,111.61,24.75,168.96,20.43,230.65H0l7.93,11.37,36.23,52.89,9.18,13.51h38.09c.09,.41,.19,.82,.3,1.23,.33,1.17,.76,2.28,1.27,3.35-1.63,1.81-3,3.87-4.08,6.13-1.41,2.93-2.21,6.16-2.4,9.58-.2,3.7,.49,7.44,2.05,11.04,1.38,3.28,3.37,6.11,5.91,8.41,2.14,1.94,4.51,3.5,7.03,4.66,2.29,1.05,4.68,1.81,7.13,2.27,2.41,.45,4.59,.62,6.68,.52,.73-.02,1.45-.08,2.18-.16,2.89-.32,5.7-1.08,8.37-2.25,3.05-1.35,5.93-3.19,8.54-5.45,.31-.27,.63-.55,.94-.84,31.14,42.09,80.23,67.02,132.68,67.02,25.95,0,50.8-5.88,73.87-17.48,21.35-10.74,40.46-26.29,55.38-45.07,1.46-.29,2.84-.62,4.11-.99l.56-.18c.6,.54,1.15,.99,1.69,1.37l3.68,2.6,4.64-.47c3.44-.4,21.23-3.13,34.43-17.15,1.65-1.69,3.1-3.53,4.46-5.69,.87-1.42,1.68-2.95,2.4-4.54,.99-2.18,1.64-4.49,1.95-6.87,.32-2.56,.18-5.15-.42-7.75-.27-1.13-.63-2.22-1.1-3.28h29.04l5.49-8.13,39.96-58.32,7.89-11.31h-20.43Z"/><path class="cls-2" d="M504.02,236.17c-1.38-27.64-7.48-54.46-18.24-79.9-11.9-28.14-28.94-53.41-50.65-75.12-21.71-21.71-46.98-38.75-75.12-50.65-29.13-12.32-60.08-18.57-91.98-18.57s-62.85,6.25-91.98,18.57c-28.14,11.9-53.41,28.94-75.12,50.65-21.71,21.71-38.75,46.98-50.65,75.12-10.76,25.44-16.86,52.26-18.24,79.9H116.1c-4.72-2.56-9.68-5.25-14.93-8.1l64.13,19.41h72.15l30.75-67.02,30.58,67.02h73.04l63.07-19.41s-5.93,3.22-14.91,8.1h84.04Z"/><g><path class="cls-4" d="M110.05,225.48l6.49,1.96c1.82-13.18,5.34-26.01,10.55-38.33,3.97-9.38,8.82-18.26,14.51-26.6l-4.55-5.16c-13.88,19.88-23.35,43.06-27,68.13Z"/><path class="cls-4" d="M222.56,102.56c12.25-3.82,24.91-6.06,37.85-6.69v-5.96c0-.26,0-.5,.01-.75-13.77,.65-27.07,3.04-39.71,6.96l1.84,6.45Z"/><path class="cls-4" d="M214.82,98.06c-29.74,10.51-55.43,29.58-74.11,54.25l-8.47-8.11,72.91,83.72-26.6,13.96h54.29l14.96-32.4-35.27-123.94,2.3,12.51Z"/><path class="cls-4" d="M313.47,102.54l1.84-6.45c-12.62-3.91-25.91-6.3-39.66-6.95,0,.25,.01,.5,.01,.75v5.96c12.92,.63,25.57,2.87,37.81,6.68Z"/><path class="cls-4" d="M521.5,241.88l3.98-5.7h-15.04C504.13,107.74,398.04,5.53,268.03,5.53S31.94,107.74,25.63,236.17H10.59l3.98,5.7H126.62c3.63,1.96,7.08,3.83,10.37,5.61H18.37l30.35,44.3h53.98c-1.76,1.51-3.16,3.32-4.2,5.41H52.43l3.85,5.7h40.44c-.24,1.84-.13,3.6,.34,5.24,.55,1.93,1.44,3.67,2.61,5.15,.18,.23,.36,.44,.55,.66-.76,.52-1.48,1.12-2.18,1.8-1.68,1.63-3.08,3.58-4.13,5.78-1.1,2.28-1.72,4.81-1.86,7.5-.16,2.86,.41,5.77,1.63,8.6,1.06,2.53,2.58,4.7,4.52,6.45,1.72,1.56,3.62,2.81,5.63,3.73,1.88,.86,3.85,1.49,5.85,1.87,1.99,.37,3.76,.52,5.42,.43,.61-.02,1.21-.06,1.81-.13,2.33-.26,4.59-.86,6.74-1.82,2.54-1.12,4.96-2.66,7.16-4.58,1.83-1.58,3.52-3.42,5.08-5.47,28.69,42.39,77.22,70.31,132.15,70.31,51.3,0,97.01-24.35,126.2-62.09,.54-.09,1.15-.2,1.85-.33,1.35-.26,2.61-.56,3.75-.9,.17-.06,.34-.11,.51-.17,.32-.12,.77-.29,1.36-.49,.56-.19,1.15-.39,1.75-.57,.13,.15,.27,.29,.4,.44,1.29,1.37,2.18,2.2,2.99,2.77,.66,.47,1.33,.94,2,1.41,.81-.08,1.62-.16,2.43-.24,.77-.09,18.43-1.95,31.15-15.49,1.38-1.41,2.62-2.98,3.74-4.76,.76-1.23,1.45-2.55,2.07-3.92,.77-1.71,1.27-3.48,1.5-5.28,.24-1.91,.13-3.86-.31-5.79h0c-.52-2.18-1.56-4.23-3.14-6.08-.59-.72-1.33-1.4-2.23-2.1-.86-.66-1.88-1.27-3.01-1.82-.06-.03-.13-.06-.2-.09h38.97l3.85-5.7h-63.59c.57-1.79,1.1-3.59,1.6-5.41h65.7l30.35-44.3h-118.54c3.58-1.94,7.05-3.83,10.33-5.61h112.01Zm-149.67,5.61h-73.04l-30.58-67.02-30.75,67.02h-72.15l-64.13-19.41c5.25,2.85,10.21,5.54,14.93,8.1H32.05c1.38-27.64,7.48-54.46,18.24-79.9,11.9-28.14,28.94-53.41,50.65-75.12,21.71-21.71,46.98-38.75,75.12-50.65,29.13-12.32,60.08-18.57,91.98-18.57s62.85,6.25,91.98,18.57c28.14,11.9,53.41,28.94,75.12,50.65,21.71,21.71,38.75,46.98,50.65,75.12,10.76,25.44,16.86,52.26,18.24,79.9h-84.04c8.98-4.88,14.91-8.1,14.91-8.1l-63.07,19.41Z"/><path class="cls-4" d="M395.36,152.31c-18.69-24.67-44.38-43.74-74.11-54.25l2.3-12.51-35.27,123.94,14.96,32.4h54.29l-26.6-13.96,72.91-83.72-8.47,8.11Z"/><path class="cls-4" d="M394.45,162.48c5.7,8.34,10.56,17.24,14.53,26.63,5.22,12.35,8.74,25.2,10.56,38.41l6.48-1.99c-3.64-25.1-13.13-48.3-27.02-68.2l-4.55,5.16Z"/></g><path class="cls-1" d="M217.77,237.44l19-20-20.72-112.69c-2.54,.92-5.06,1.89-7.56,2.94-18.21,7.7-34.57,18.73-48.62,32.79-5.19,5.19-9.95,10.69-14.29,16.49l75.14,71.94-2.94,8.53Zm170.92,15.75l-.34,.17c-19.27,10.47-39.33,21.38-48.89,26.6-.99,2.04-1.98,4.08-2.96,6.13h147.84l22.54-32.9h-118.18Zm-73.34-24.28l75.14-71.94c-4.35-5.79-9.11-11.3-14.29-16.49-14.05-14.05-30.41-25.08-48.62-32.79-2.5-1.06-5.02-2.02-7.56-2.94l-20.72,112.69,19,20-2.94-8.53Zm-11.1,31.08h55.61l9.64-5.14h-67.57l2.32,5.14Zm-128.04,0h55.61l2.32-5.14h-67.57l9.64,5.14Zm209.31,82.72c-.26-.27-.53-.56-.79-.86-.22,.11-.45,.23-.67,.34-.39,.2-.78,.38-1.17,.56-27.2,33.25-68.54,54.48-114.85,54.48s-89.33-22.1-116.49-56.52c-1.03-1.35-2.16-2.77-3.24-4.26-2.18-2.97-4.24-6.03-6.2-9.16-.36,.75-.73,1.5-1.09,2.26-.49,1.03-1.02,2.04-1.57,3.04,27.41,41.98,74.81,69.79,128.58,69.79,48.36,0,91.56-22.49,119.71-57.56-.62-.51-1.33-1.18-2.23-2.11Zm-244.62-57.83c2.04-3.23,4.55-5.94,7.49-8.05,3.24-2.28,6.55-3.84,9.9-4.65,2.87-.7,5.91-1.16,9.04-1.38,3.88-.27,7.76-.53,11.63-.77-7.35-3.92-16.91-9.04-29.35-15.75l-2.22-1.1H29.19l22.54,32.9h88.43c.25-.4,.49-.8,.74-1.2Z"/><path class="cls-1" d="M262.75,373.59l.29-.09c.06-.02,.12,0,.15,.05l.36,.45s.02,.04,.03,.06l.06,.28s.02,.06,.05,.08l.36,.29c.09,.08,.23,0,.23-.11l-.02-2.35c0-.08,.06-.14,.14-.14h26.06c.08,0,.14-.06,.14-.14v-21.79c0-.08-.06-.14-.14-.14h-44.83c-.08,0-.14,.06-.14,.14v5.61s0,.06,.03,.09l.49,.64s.03,.03,.04,.04l.14,.08s.06,.05,.07,.08l.09,.29s.03,.05,.05,.07l.28,.21s.05,.05,.06,.09l.1,.48s0,.09-.03,.12l-.09,.1c-.05,.05-.05,.13,0,.18l.19,.26c.05,.07,.03,.17-.05,.21-.08,.05-.1,.16-.03,.23l.73,.71s.04,.03,.07,.04l.6,.12s.07,.03,.09,.06l.9,1.45s.02,.03,.04,.04l.4,.28s.06,.07,.06,.12v.26s.01,.07,.04,.1l.5,.52s.06,.04,.1,.04h.3s.07,.01,.09,.04l.08,.07c.06,.05,.06,.13,.02,.19l-.02,.03c-.04,.05-.04,.12,0,.18l.07,.08s.09,.06,.15,.05l.69-.17c.09-.02,.18,.05,.18,.15l-.08,.9s0,.02,0,.03l-.33,.96s0,.03,0,.04l-.02,.38s-.02,.08-.06,.11l-.15,.11c-.05,.04-.07,.11-.05,.17l.29,.69v.02l.16,.56c.02,.07-.01,.14-.07,.17l-.36,.17c-.06,.03-.09,.09-.08,.15l.1,.64s0,.07-.02,.1l-.11,.16s-.03,.05-.03,.08v.22c0,.07,.05,.13,.12,.14l.22,.03s.06,.02,.08,.04l.35,.35c.07,.07,.17,.05,.22-.03l.16-.26s.07-.07,.12-.07h.25s.09-.03,.12-.07l.39-.63c.06-.09,.19-.09,.24,0l.14,.23s.05,.06,.09,.07l.21,.04c.06,.01,.1,.06,.11,.11l.17,.96s0,.02,.01,.03l.65,1.43s.03,.05,.06,.06l.38,.23s.07,.07,.07,.12v.41s-.02,.09-.06,.11l-.09,.06c-.07,.05-.08,.14-.03,.2l.44,.55s.08,.06,.13,.05l.36-.05s.06,0,.09,.02l.26,.15s.05,.04,.06,.06l.31,.67s.01,.03,.01,.04l.09,.69s.01,.05,.03,.07l.56,.66s.11,.06,.17,.04h.02c.06-.04,.09-.1,.08-.16l-.04-.23s0-.09,.04-.12l.21-.23s.08-.05,.13-.04l1.13,.23c.07,.01,.15-.03,.16-.1l.05-.19s.02-.05,.05-.07l.19-.16s.1-.04,.15-.02l.57,.26s.07,.02,.11,0l.57-.22s.11,0,.15,.03l.15,.14s.07,.04,.11,.04l.95-.12c.06,0,.11-.05,.12-.11l.16-.7s.05-.09,.1-.1Z"/><g><path class="cls-2" d="M206,366.36v-7.02l2.56-2.57h4.71l.58-.56v-2.47l-.61-.58h-6.74v-3.12h8.79l2.29,2.26v5.27l-2.29,2.28h-4.78l-.79,.79v2.56h7.79v3.15h-11.52Z"/><path class="cls-2" d="M224.61,366.36l-2.77-2.77v-10.77l2.77-2.77h6.79l2.77,2.77v10.77l-2.77,2.77h-6.79Zm1.94-3.12h2.91l.96-.96v-8.16l-.96-.96h-2.91l-.98,.96v8.16l.98,.96Z"/></g><g><path class="cls-2" d="M303.28,366.36v-7.02l2.56-2.57h4.71l.58-.56v-2.47l-.61-.58h-6.74v-3.12h8.79l2.29,2.26v5.27l-2.29,2.28h-4.78l-.79,.79v2.56h7.79v3.15h-11.52Z"/><path class="cls-2" d="M318.48,366.36v-3.12h7.07l.77-.75v-2.26l-.75-.75h-4.55v-2.94h4.27l.68-.68v-2.12l-.58-.58h-6.69v-3.12h8.81l2.19,2.19v4.01l-1.45,1.49,1.82,1.82v4.45l-2.35,2.36h-9.23Z"/></g><path class="cls-2" d="M442.23,315.14c-.28-1.2-.88-2.34-1.79-3.41-.27-.33-.65-.69-1.16-1.09-.51-.39-1.12-.77-1.85-1.12-.73-.36-1.55-.64-2.49-.84-.94-.2-1.99-.25-3.17-.15-.56,.05-1.19,.15-1.88,.27-.7,.13-1.39,.35-2.11,.65-.71,.31-1.41,.74-2.08,1.29-.68,.55-1.28,1.28-1.81,2.17-.75,1.23-1.16,2.4-1.22,3.49-.06,1.1,.06,2.1,.35,3,.3,.9,.71,1.65,1.26,2.25,.55,.6,1.04,1.05,1.49,1.34,0,0-.78-8.19,4.86-8.17,.16,0,.32,0,.48,0,.03,0,.06,0,.09,0,.54,.05,.94,.17,1.25,.33,0,0,0,0,.01,0,.01,0,.01,0,.02,.01,.03,.02,.06,.03,.09,.05,.92,.43,1.52,1.13,1.78,2.14,.27,1.05,.09,2.22-.56,3.52-.39,.73-1.18,1.89-2.34,3.49-1.17,1.6-2.73,3.24-4.68,4.92-1.35,1.16-2.85,2.23-4.5,3.21-1.65,.98-3.19,1.84-4.59,2.58-1.66,.89-3.32,1.67-4.95,2.33-1.32-2.35-2.09-4.65-2.3-6.92-.23-2.26-.05-4.71,.53-7.33,.24-1.17,.67-2.45,1.27-3.85,.6-1.4,1.26-2.76,1.99-4.09,.72-1.33,1.42-2.58,2.1-3.76,.68-1.18,1.17-2.11,1.5-2.8-2.79-.3-5.59-.59-8.39-.88-.29,.39-.69,1.06-1.22,2.03-.53,.96-1.08,2.12-1.68,3.46-.6,1.34-1.18,2.84-1.77,4.48-.59,1.64-1.07,3.4-1.43,5.28-.2,.82-.34,2.09-.42,3.81-.08,1.72,.1,3.47,.53,5.24-1.07,.43-2.19,.86-3.33,1.29-1.15,.43-2.17,.81-3.04,1.14-1.06,.38-2.06,.73-2.99,1.06-.65-.83-1.15-1.86-1.52-3.09-.37-1.23-.61-2.52-.74-3.87-.12-1.35-.14-2.68-.05-3.99,.09-1.3,.22-2.42,.44-3.36,.2-.99,.6-2.14,1.17-3.43,.58-1.29,1.19-2.62,1.87-3.99,.67-1.37,1.33-2.68,1.97-3.93,.64-1.25,1.14-2.28,1.53-3.08-2.68-.25-5.35-.49-8.03-.73-.42,.62-.98,1.54-1.67,2.76-.69,1.22-1.4,2.62-2.1,4.2-.71,1.58-1.35,3.33-1.9,5.25-.56,1.92-.89,3.92-1.01,6-.12,2.13,.14,4.13,.76,6-1.7,.86-3.39,1.72-5.08,2.59-1.07,.57-2.3,1.01-3.71,1.31-.78,.18-1.68,.11-2.64-.2-.96-.31-1.88-1.13-2.74-2.44,1.35-1.21,2.62-2.54,3.82-4,1-1.29,1.98-2.84,2.94-4.64,.95-1.8,1.59-3.79,1.88-5.97,.34-1.88,.22-3.62-.36-5.21-.57-1.59-1.43-2.99-2.56-4.18-1.13-1.19-2.51-2.14-4.14-2.86-1.63-.72-3.36-1.14-5.19-1.27-2.44-.17-4.92,.14-7.46,.93-2.52,.79-4.89,1.95-7.09,3.49-2.2,1.54-4.11,3.37-5.75,5.51-1.64,2.14-2.86,4.44-3.65,6.89-.78,2.28-1.06,4.46-.85,6.56,.08,.76,.23,1.47,.41,2.17-.94,.51-1.87,1.03-2.81,1.54-1.29,.77-2.61,1.15-3.92,1.14-1.32,0-2.38-.38-3.18-1.13-.8-.75-1.17-1.64-1.09-2.68,.08-1.04,.24-1.79,.51-2.25,1.53-3.2,3.07-6.4,4.61-9.59,1.27-2.61,1.95-4.84,2.01-6.68,.06-1.84-.27-3.34-.96-4.51-.71-1.16-1.72-2.02-3.04-2.55-1.32-.54-2.74-.84-4.27-.91-2.32-.04-4.37,.29-6.14,.99-1.76,.7-3.06,1.28-3.87,1.73,3.93-8.27,11.99-24.75,11.99-24.75h-9.3s-17.39,37-25.77,55.8c2.83,.06,5.66,.12,8.49,.2,4.12-8.92,8.32-17.81,12.59-26.69,3.68-2.37,6.48-3.24,8.41-2.62,1.62,.48,2.59,1.43,2.89,2.84,.31,1.41,.12,2.79-.54,4.12-1.57,3.29-3.13,6.59-4.67,9.88-.93,1.98-1.34,3.72-1.29,5.21,.06,1.49,.32,2.63,.76,3.42,.61,1.21,1.62,2.35,3.04,3.42,1.42,1.07,3.16,1.65,5.25,1.75,1.25,.06,2.55-.06,3.91-.35,1.35-.29,2.74-.81,4.15-1.57,1.27-.71,2.55-1.42,3.83-2.12,1.03,1.47,2.36,2.69,4.01,3.62,1.77,1,3.8,1.56,6.12,1.71,1.66,.1,3.41,0,5.21-.29,1.81-.3,3.86-1.05,6.16-2.26,.94,1.14,1.93,2.04,2.99,2.72,1.05,.67,2.3,1,3.74,.99,1.37,.04,2.7-.12,3.98-.5,1.28-.37,2.64-.92,4.08-1.64,1.93-.99,3.86-1.98,5.8-2.96,.22,.43,.45,.84,.69,1.23,.87,1.42,1.75,2.6,2.66,3.54,.9,.95,1.55,1.56,1.95,1.83,.6-.07,1.48-.21,2.64-.43,1.16-.22,2.2-.47,3.12-.74,.37-.14,.9-.33,1.58-.57,.68-.23,1.39-.46,2.14-.69,.75-.23,1.49-.48,2.24-.77,.75-.28,1.4-.52,1.96-.7,.87,1.52,1.76,2.77,2.68,3.76,.91,.99,1.57,1.63,1.96,1.9,.02-.02,15.81-1.51,26.93-13.39,1.08-1.09,2.03-2.31,2.87-3.64,.61-1,1.17-2.07,1.69-3.2,.51-1.13,.83-2.29,.99-3.47,.15-1.18,.08-2.37-.19-3.57Zm-78.93-4.51c-.82,1.28-1.48,2.67-1.97,4.15-.49,1.49-.83,3.06-.99,4.71-.17,1.66-.13,3.3,.13,4.92,.25,1.62,.63,3.03,1.12,4.23,.49,1.19,.87,2.04,1.13,2.53-1.6,1.5-3.2,2.43-4.82,2.8-1.61,.37-3,.37-4.17,0-1.82-.53-3.06-1.82-3.72-3.88-.56-1.7-.69-3.62-.38-5.78,.3-2.15,1-4.3,2.1-6.44,.41-.87,1.1-1.91,2.05-3.13,.95-1.22,2.09-2.4,3.41-3.54,1.32-1.14,2.74-2.07,4.25-2.8,1.51-.73,3.06-1.04,4.64-.93-1.03,.82-1.96,1.87-2.78,3.16Zm4.12,16.5c-.5-.63-.85-1.44-1.05-2.44-.2-1-.34-2.03-.41-3.11-.08-1.08-.08-2.09-.01-3.04,.05-.68,.1-1.36,.14-2.04,.19-1,.48-1.98,.84-2.93,.38-.96,.77-1.81,1.19-2.55,.48-.86,1-1.65,1.55-2.39,.58,.28,1.1,.71,1.55,1.27,.39,.51,.72,1.14,1,1.91,.29,.77,.4,1.74,.37,2.93-.06,2.38-.51,4.58-1.36,6.6-.85,2.02-2.12,3.95-3.82,5.8Zm-130.51,1.19c-.41,.31-1.05,.65-1.9,1.03-.86,.38-1.74,.69-2.67,.92-.92,.23-1.85,.32-2.77,.26-.93-.06-1.73-.35-2.4-.86-1.11-.97-1.69-2.26-1.74-3.87-.05-1.66,.53-4.03,1.76-7.1,.23-.48,1.04-1.99,2.45-4.53,1.41-2.54,3.4-5.62,5.98-9.25-.91-.87-1.81-1.74-2.72-2.6-2.51,1.97-5.22,3.55-8.13,4.74-2.91,1.2-6.03,1.77-9.38,1.72,.32-1.2,.42-2.65,.33-4.34-.1-1.69-.79-3.28-2.07-4.78-.52-.63-1.18-1.2-2-1.7-.82-.5-1.72-.86-2.71-1.09-.99-.22-2.01-.3-3.05-.22-1.04,.08-2.07,.38-3.09,.9-1.14,.59-2.04,1.36-2.69,2.32-.66,.96-1.09,2-1.31,3.14-.22,1.14-.19,2.27,.08,3.39,.27,1.12,.8,2.16,1.58,3.13,.45,.57,1,1.1,1.63,1.57,.63,.47,1.25,.87,1.88,1.2,.62,.33,1.22,.61,1.81,.85,.59,.24,1.07,.41,1.43,.51-.21,.72-.53,1.57-.97,2.54-.39,.85-.87,1.81-1.45,2.88-.59,1.07-1.36,2.25-2.31,3.55-.67,.99-1.43,1.99-2.29,3.02-.85,1.03-1.76,1.92-2.74,2.69-1.03,.89-2.15,1.78-3.36,2.68-.4,.3-.84,.56-1.29,.81-.22,.05-.45,.11-.67,.15-.8,.14-1.56,.17-2.29,.09-.72-.08-1.33-.34-1.85-.78-.38-.39-.64-.85-.76-1.38-.12-.53-.16-1.06-.1-1.6,.06-.54,.16-1.04,.32-1.49,.16-.46,.25-.8,.3-1.04,1.41-4.04,2.83-8.08,4.27-12.12,.78-2.3,1.1-4.14,.97-5.5-.13-1.36-.53-2.42-1.19-3.19-.66-.77-1.46-1.25-2.42-1.47-.96-.21-1.84-.29-2.63-.24-2.29,.14-4.57,.28-6.86,.43-.42,1.13-.83,2.26-1.24,3.39,1.03-.07,2.07-.14,3.1-.2,.67-.04,1.17,.03,1.52,.22,.35,.19,.69,.48,1.02,.87,.2,.29,.32,.72,.36,1.32,.04,.59-.15,1.5-.56,2.71-1.47,4.23-2.92,8.46-4.36,12.69-.39,1.21-.61,2.47-.67,3.76-1.35,.85-2.7,1.69-4.04,2.54-.98,.61-2.11,1.15-3.39,1.63-1.29,.48-2.38,.7-3.28,.65-.79-.06-1.58-.27-2.39-.62-.81-.35-1.48-.88-2.02-1.59-.54-.7-.88-1.61-1.03-2.73-.15-1.12,.02-2.44,.5-3.97,4.14-13.02,8.43-26.01,12.87-38.99,.42-1.16,.95-1.98,1.61-2.47,.65-.49,1.25-.75,1.81-.79,.57-1.73,1.15-3.47,1.72-5.2-4.44,.28-8.88,.58-13.33,.9-2.73,.2-5.34,.61-7.82,1.22-2.48,.61-4.97,1.8-7.43,3.55-2.23,1.62-4.14,3.69-5.72,6.22-1.58,2.52-2.97,4.98-4.17,7.35-1.2,2.44-2.39,4.87-3.58,7.31-1.4-1.12-2.55-2.04-3.45-2.76-.9-.72-1.79-1.39-2.65-2.02-.86-.57-1.74-1.14-2.63-1.71-.89-.57-1.83-1.1-2.81-1.59-1.96-.93-4.09-1.58-6.4-1.93-2.31-.35-4.85-.16-7.63,.57-1.94,.52-3.84,1.53-5.72,3.03-1.88,1.51-3.15,3.56-3.83,6.15-.38,1.48-.41,2.79-.09,3.91,.32,1.13,.81,2.1,1.46,2.92,.65,.82,1.39,1.49,2.23,2.02,.83,.53,1.57,.94,2.22,1.22h0v-.06c0-.22,0-.45-.01-.7,.04-2.05,.62-7.66,5.76-9.55,6.4-2.35,10.98,1,13.84,2.78,2.17,1.35,5.41,3.19,6.84,4-3.47,6.98-6.87,13.98-10.22,20.99-.99,2.08-2.15,4.03-3.49,5.84-1.34,1.82-3,2.96-4.99,3.43-1.23,.26-2.39,.24-3.48-.05-1.09-.29-2.05-.75-2.87-1.37-.83-.62-1.49-1.35-1.98-2.19-.49-.84-.78-1.64-.88-2.41-.25-2.12-.02-3.8,.72-5.02,.74-1.22,1.67-2.11,2.79-2.66,1.12-.55,2.25-.8,3.38-.75,1.13,.05,1.9,.23,2.3,.55,.23-1.7,.08-3.13-.48-4.29-.56-1.16-1.35-2.04-2.4-2.64-1.05-.6-2.26-.94-3.65-1.01-1.39-.08-2.81,.15-4.28,.68-1.24,.39-2.42,1.13-3.54,2.22-1.12,1.09-2.04,2.41-2.77,3.93-.73,1.53-1.13,3.23-1.23,5.09-.1,1.87,.28,3.8,1.14,5.78,.69,1.65,1.65,3.03,2.87,4.13,1.22,1.11,2.54,1.98,3.94,2.61,1.41,.64,2.84,1.09,4.31,1.37,1.47,.27,2.78,.38,3.91,.31,2.15-.07,4.2-.54,6.14-1.41,1.95-.87,3.77-2.06,5.47-3.55,1.7-1.49,3.27-3.26,4.69-5.28,1.42-2.03,2.67-4.23,3.77-6.6,2.3-4.91,4.62-9.82,6.98-14.72,.7,.35,1.74,.66,3.11,.92,1.36,.26,2.44,.42,3.24,.47,1.11,.08,2.2,.07,3.29-.02,1.09-.09,2.05-.23,2.89-.42,1.01-.2,1.94-.46,2.77-.77-1,3.03-1.99,6.06-2.98,9.1-.44,1.35-.77,2.72-1.01,4.11-.24,1.39-.32,2.74-.24,4.05,.08,1.31,.38,2.55,.91,3.72,.52,1.18,1.36,2.22,2.52,3.14,1.15,.92,2.4,1.56,3.75,1.92,1.34,.37,2.72,.53,4.12,.48,1.4-.05,2.76-.3,4.06-.76,1.31-.46,2.48-1.02,3.51-1.69,2.34-1.55,4.69-3.09,7.04-4.63,.07,.15,.13,.32,.21,.46,.56,1.15,1.46,2.22,2.73,3.21,1.26,.99,2.67,1.55,4.23,1.7,.89,.07,1.73,.06,2.54,0-.03,.03-.05,.05-.08,.08,16.85-.83,24.62-23.23,24.65-23.25,1.21,.01,2.31-.09,3.3-.31,.99-.22,1.88-.46,2.65-.72,.78-.27,1.4-.53,1.88-.78,.48-.25,.8-.41,.98-.48,.48-.19,1.07-.51,1.79-.95,.71-.44,1.4-.88,2.05-1.31,.77-.5,1.61-1.03,2.5-1.59-3.86,3.09-6.87,6.3-9.04,9.62-2.17,3.32-3.22,6.56-3.15,9.7-.02,1.07,.17,2.04,.56,2.92,.39,.88,.84,1.63,1.34,2.27,.69,.92,1.49,1.59,2.4,2.01,.91,.41,1.57,.67,1.99,.78,.54,.1,1.28,.19,2.24,.28,.96,.09,1.98,.08,3.08,0,1.1-.09,2.22-.31,3.38-.64,1.15-.33,2.26-.8,3.31-1.43,3.28-2.08,6.59-4.14,9.9-6.19-.32-1.36-.65-2.72-.98-4.08-2.4,1.56-4.8,3.13-7.18,4.7Zm-77.85-18.29c-.17,.07-.54,.16-1.08,.27-.54,.1-1.18,.19-1.9,.25-.73,.06-1.52,.08-2.38,.07-.86-.02-1.66-.14-2.42-.37-.7-.24-1.41-.52-2.14-.84-.73-.32-1.39-.64-1.97-.94-.71-.35-1.38-.74-2.03-1.16,1.67-3.52,3.36-7.04,5.06-10.56,.53-1.06,1.08-2.16,1.66-3.32,.58-1.15,1.25-2.25,2-3.3,.75-1.05,1.59-2.02,2.5-2.93,.92-.91,1.95-1.62,3.09-2.13,1.13-.57,2.23-.96,3.27-1.19,1.04-.23,1.99-.43,2.85-.62,.98-.19,1.9-.29,2.78-.29-3.17,9.01-6.27,18.04-9.3,27.07Zm50.32-4.84c-.11,.36-.19,.75-.27,1.17-.07,.42-.17,.81-.27,1.17-.1,.42-.2,.84-.31,1.26-3.67-.37-5.57-1.91-5.7-4.64-.06-1.25,.3-2.23,1.1-2.95,.79-.72,1.61-1.04,2.48-.96,1.05,.13,1.86,.6,2.45,1.41,.58,.81,.76,1.99,.52,3.54Zm-17.42-6.89c1.47-.08,2.87-.66,4.19-1.75,1.33-1.08,2.17-2.37,2.52-3.88,.3-1.38,.07-2.46-.68-3.22-.75-.76-1.74-1.11-2.97-1.05-1.48,.08-2.88,.66-4.21,1.75-1.33,1.09-2.17,2.36-2.51,3.8-.29,1.39-.08,2.47,.65,3.26,.72,.79,1.73,1.15,3.01,1.08Zm106.57,12.02c-.16-1.01-.31-1.92-.44-2.73-.13-.8-.32-1.58-.54-2.33-.23-.75-.46-1.49-.68-2.24-.2-.63-.44-1.35-.71-2.12,8.31-1.44,14.95-7.36,15.71-13.37,.16-1.23,.22-2.49,0-3.78-.34-2.03-1.17-3.84-2.49-5.42-1.03-1.22-2.33-2.21-3.93-2.96-1.6-.75-3.49-1.22-5.66-1.39-1.06-.08-2.37-.08-3.92,0-1.56,.09-3.17,.43-4.83,1.03-1.66,.6-3.27,1.53-4.84,2.78-1.57,1.26-2.92,3.01-4.05,5.26-1.27,2.54-1.68,5.14-1.27,7.78,.25,1.64,.65,3.24,1.16,4.81-10.66-4.18-22.72-14.43-32.86-8.48-9.49,5.61-3.51,15.39-3.53,15.38,.01-.03,.02-.06,.04-.1,.31-.85,2.87-7.18,9.71-8.76,7.33-1.7,13.49,.52,18.92,2.55,3.07,1.15,5.92,2.82,9.56,3.91,.57,1.24,1.14,2.49,1.7,3.74,.8,1.82,1.46,3.72,1.98,5.68,.45,1.61,.77,3.34,.93,5.18,.15,1.84-.03,3.65-.53,5.43-.51,1.78-1.37,3.49-2.59,5.13-1.22,1.65-2.69,3.04-4.4,4.18-1.71,1.14-3.61,1.93-5.66,2.37-2.07,.44-4.16,.33-6.31-.33-1.97-.59-3.63-1.6-4.98-3.02-1.35-1.42-2.3-3-2.85-4.75-.55-1.75-.67-3.54-.35-5.39,.32-1.84,1.17-3.42,2.56-4.73,1.08-1.01,2.33-1.7,3.72-2.06,1.39-.36,2.57-.59,3.54-.71,.06-1.78-.49-3.3-1.68-4.55-1.19-1.25-2.72-1.9-4.61-1.95-1.58-.05-3.28,.34-5.06,1.18-1.79,.84-3.43,2.4-4.93,4.68-1.79,2.75-2.54,5.6-2.26,8.53,.28,2.94,1.24,5.55,2.88,7.85,1.46,2.12,3.38,3.9,5.78,5.35,2.39,1.44,4.99,2.46,7.79,3.05,2.32,.47,4.81,.64,7.45,.51,2.65-.13,5.24-.63,7.78-1.49,2.54-.86,4.96-2.15,7.26-3.86,2.3-1.71,4.23-3.95,5.79-6.71,1.31-2.29,1.99-4.62,2.05-7,.05-2.37-.05-4.43-.32-6.16Zm-5.25-16.41c-.36-.84-.7-1.65-1.02-2.42-.33-.78-.58-1.35-.76-1.71-.59-1.44-.78-2.79-.54-4.06,.24-1.27,.72-2.41,1.45-3.41,.73-1,1.61-1.83,2.65-2.49,1.03-.66,2.06-1.1,3.05-1.32,1.31-.27,2.49-.26,3.54,.03,1.04,.29,1.96,.75,2.71,1.36,.75,.61,1.36,1.33,1.8,2.14,.44,.81,.69,1.64,.72,2.47,0,.08,0,.15,.01,.22h0c.47,7.37-6.39,10.7-12.39,12.14-.41-1.02-.82-2-1.23-2.96Z"/><polygon class="cls-2" points="259.29 227.33 262.65 230.95 271.32 221.98 274.32 225.06 278.17 221.03 268.26 199.61 251.81 235.27 259.29 227.33"/><g><path class="cls-4" d="M87.73,220.87l-12.01-2.1-23.82,3.96,1.1-6.26,15.25-1.95-13.67-7.02,1.1-6.26,21.06,11.82,12.01,2.1-1,5.71Z"/><path class="cls-4" d="M57.77,193.27l4.92-16.01,5.41,1.66-3.21,10.42,8.31,2.56,2.38-7.74,5.41,1.66-2.38,7.74,8.89,2.73,3.2-10.42,5.41,1.66-4.92,16.01-33.43-10.28Z"/><path class="cls-4" d="M97.87,183.06l-32.03-14.05,2.37-5.39,26.85,11.77,4.09-9.31,5.18,2.27-6.45,14.71Z"/><path class="cls-4" d="M106.25,164.69l-30.26-17.52,2.95-5.1,25.37,14.68,5.09-8.8,4.9,2.84-8.04,13.9Z"/><path class="cls-4" d="M124.75,131.67l.57,3.99-7.06,9.43-3.99,.57-23.43-17.54-.57-3.99,7.06-9.43,3.99-.57,23.43,17.54Zm-27.73-7.03l.13,.9,17.86,13.38,.9-.13,2.65-3.54-.1-.94-17.86-13.38-.93,.17-2.65,3.54Z"/><path class="cls-4" d="M144.25,115.47l-19.25-14.83,14,19.86-5.32,5.09-29.02-20.63,4.29-4.11,20.6,15.25-14.46-21.14,4.65-4.46,20.51,15.34-14.36-21.23,4.29-4.11,19.38,29.87-5.32,5.09Z"/><path class="cls-4" d="M150.85,74.05l-.96-.18-3.68,2.53-.18,.96,4.12,5.99,.96,.18,6.75-4.64,3.97,.73,8.45,12.28-.73,3.97-9.78,6.73-3.97-.73-4.09-5.95,4.82-3.31,2.11,3.07,.96,.18,3.68-2.53,.18-.96-4.48-6.52-.96-.18-6.71,4.61-3.97-.73-8.11-11.79,.74-3.97,9.78-6.73,3.97,.73,4.09,5.95-4.85,3.34-2.09-3.03Z"/><path class="cls-4" d="M172.2,60.71l13.63,25.95-5.17,2.72-13.63-25.95-5.58,2.93-2.63-5.01,16.33-8.58,2.63,5.01-5.58,2.93Z"/><path class="cls-4" d="M210.48,73.19l-1.65,3.68-11.01,4.18-3.68-1.65-10.39-27.36,1.65-3.68,11.01-4.18,3.68,1.65,10.39,27.36Zm-19.66-20.79l-.37,.83,7.92,20.86,.83,.37,4.13-1.57,.42-.85-7.93-20.86-.87-.36-4.13,1.57Z"/><path class="cls-4" d="M208.54,40.18l6.14-1.45,12.31,19.13-4.92-20.87,5.69-1.34,8.02,34.04-6.14,1.45-12.31-19.13,4.92,20.87-5.69,1.34-8.02-34.04Z"/><path class="cls-4" d="M237.44,34.14l16.66-1.73,.58,5.63-10.85,1.12,.9,8.65,8.06-.84,.58,5.63-8.05,.84,.96,9.24,10.85-1.12,.58,5.63-16.66,1.73-3.61-34.78Z"/><path class="cls-4" d="M277.35,32.35l5.54,.31-1.97,34.91-5.54-.31,1.97-34.91Z"/><path class="cls-4" d="M291.43,33.23l5.92,.9,3.92,22.28,3.21-21.2,5.49,.83-5.23,34.58-5.92-.9-3.92-22.28-3.21,21.2-5.49-.83,5.23-34.58Z"/><path class="cls-4" d="M326.5,46.02l-7.69,28.28-5.36-1.46,7.69-28.28-5.78-1.57,1.48-5.46,16.91,4.6-1.48,5.46-5.78-1.57Z"/><path class="cls-4" d="M339.23,43.98l14.85,5.72-2.03,5.28-9.67-3.72-3.13,8.11,7.18,2.77-2.03,5.28-7.18-2.77-3.34,8.67,9.67,3.72-2.04,5.28-14.85-5.72,12.57-32.63Z"/><path class="cls-4" d="M360.98,52.8l12.72,6.62,1.09,3.78-7.22,13.88-3.72,1.28-3.88,13.34-4.85-2.52,3.88-13.34-2.95-1.53-6.28,12.08-4.92-2.56,16.13-31.03Zm3.28,18.61l3.99-7.67-.25-.85-4.73-2.46-4.61,8.86,4.73,2.46,.86-.33Z"/><path class="cls-4" d="M383.89,65.31l4.93,3.41-6.26,21.74,12.19-17.64,4.57,3.16-19.88,28.77-4.93-3.41,6.26-21.74-12.19,17.64-4.57-3.16,19.88-28.77Z"/><path class="cls-4" d="M392.7,106.12l-6.16,4.61-4.22-3.81,29.26-20.71,4.03,3.63-17.57,31.25-4.22-3.8,3.95-6.6-5.06-4.57Zm14.21-10.67l-9.61,7.2,3.44,3.1,6.17-10.3Z"/><path class="cls-4" d="M426.76,109.33l-21.7,19.69-3.73-4.11,21.7-19.69-4.02-4.44,4.19-3.8,11.78,12.98-4.19,3.8-4.02-4.43Z"/><path class="cls-4" d="M439.29,115.54l3.37,4.41-27.8,21.21-3.37-4.41,27.8-21.22Z"/><path class="cls-4" d="M429.37,157.93l-3.86-.77-5.97-9.47,.97-3.81,24.75-15.61,3.86,.77,5.97,9.47-.97,3.82-24.75,15.61Zm16.77-22.93l-.87-.17-18.88,11.9-.22,.86,2.24,3.55,.9,.21,18.88-11.9,.2-.9-2.24-3.55Z"/><path class="cls-4" d="M461.1,149l2.54,5.42-16.35,15.63,19.41-9.1,2.36,5.03-31.66,14.85-2.54-5.42,16.35-15.63-19.42,9.1-2.36-5.03,31.66-14.85Z"/><path class="cls-4" d="M448.17,188.71l-7.64,.88-1.73-5.41,35.71-3.14,1.65,5.16-30.92,18.13-1.73-5.41,6.74-3.71-2.08-6.5Zm17.65-2.06l-11.93,1.38,1.41,4.41,10.52-5.79Z"/><path class="cls-4" d="M445.96,207.98l34.32-6.67,1.07,5.49-28.77,5.59,1.84,9.48-5.56,1.08-2.91-14.98Z"/></g><g><path class="cls-4" d="M384.24,275.57v-11.74h3.34l.97,7.39h.25l.97-7.39h3.3v11.74h-2.03v-8.6h-.28l-.96,7.13h-2.3l-.96-7.13h-.28v8.6h-2.03Z"/><path class="cls-4" d="M400.35,275.57l-1.53-1.53v-8.69l1.53-1.53h3.3l1.53,1.53v8.69l-1.53,1.53h-3.3Zm1.14-1.79h1.02l.5-.5v-7.14l-.5-.5h-1.02l-.5,.5v7.14l.5,.5Z"/><path class="cls-4" d="M410.93,275.57v-11.74h3.34l1.48,8.92h.28v-8.92h1.96v11.74h-3.34l-1.48-8.92h-.28v8.92h-1.96Z"/><path class="cls-4" d="M424.93,275.57v-9.94h-1.96v-1.79h6.09v1.79h-1.96v9.94h-2.16Z"/><path class="cls-4" d="M438.24,263.83l1.76,10.98v.75h-2.08l-.37-2.75h-2.16l-.39,2.75h-2.03v-.75l1.79-10.98h3.47Zm-2.62,7.19h1.69l-.69-5.06h-.3l-.7,5.06Z"/><path class="cls-4" d="M445.29,275.57v-11.74h3.34l1.48,8.92h.28v-8.92h1.96v11.74h-3.34l-1.48-8.92h-.28v8.92h-1.96Z"/><path class="cls-4" d="M462.89,263.83l1.76,10.98v.75h-2.08l-.37-2.75h-2.16l-.39,2.75h-2.03v-.75l1.79-10.98h3.47Zm-2.62,7.19h1.69l-.69-5.06h-.3l-.7,5.06Z"/></g><g><path class="cls-4" d="M70.5,275.57v-11.74h4.61l1.34,1.34v3.37l-.84,.84,1.09,1.11v3.57l-1.51,1.51h-4.69Zm2.16-6.89h1.29l.34-.34v-2.4l-.39-.39h-1.24v3.12Zm0,5.16h1.32l.55-.55v-2.45l-.5-.5h-1.38v3.5Z"/><path class="cls-4" d="M80.19,275.57v-1.73h1.09v-8.28h-1.09v-1.73h4.34v1.73h-1.09v8.28h1.09v1.73h-4.34Z"/><path class="cls-4" d="M88.28,275.57v-11.74h2.16v9.88h2.82v1.86h-4.98Z"/><path class="cls-4" d="M96.59,275.57v-11.74h2.16v9.88h2.82v1.86h-4.98Z"/><path class="cls-4" d="M104.49,275.57v-1.73h1.09v-8.28h-1.09v-1.73h4.34v1.73h-1.09v8.28h1.09v1.73h-4.34Z"/><path class="cls-4" d="M112.57,275.57v-11.74h3.34l1.48,8.92h.28v-8.92h1.96v11.74h-3.34l-1.48-8.92h-.29v8.92h-1.96Z"/><path class="cls-4" d="M125.23,275.57l-1.53-1.53v-8.69l1.53-1.53h4.31v1.79h-3.17l-.5,.5v7.14l.5,.5h1.11l.5-.5v-2.83h-1.16v-1.73h3.25v5.33l-1.53,1.53h-3.32Z"/><path class="cls-4" d="M133.7,275.57v-1.79h3l.4-.4v-2.46l-.4-.4h-1.73l-1.41-1.41v-3.86l1.41-1.41h4.09v1.79h-2.93l-.4,.4v2.28l.4,.4h1.73l1.41,1.41v4.04l-1.41,1.41h-4.16Z"/></g><path class="cls-4" d="M137.74,197.88l5.07,4.86s2.58,8.86,7.87,13.4l-2.29,9.76-.79-.76-1.28,6s-1.49-1.61-2.73-1.81l5.96,5.71,1.23,.02,10.74-11.22,1.96,1.87,.56,11.16,2.05,1.96,1.82-.13,1.8-7.29-1.5-1.97s1.44,1.29,2.72,1.63l1.18-1.23s-.61-1.22-1.08-1.67l.15-.16c.47,.45,1.74,.98,1.74,.98l1.18-1.23c-.39-1.27-1.74-2.65-1.74-2.65l2.04,1.41,7.2-2.12,.05-1.82-2.05-1.96-11.17-.08-1.96-1.87,10.74-11.22-.07-1.23-5.96-5.71c.25,1.23,1.93,2.65,1.93,2.65l-5.94,1.54,.79,.76-9.65,2.72c-4.76-5.09-13.73-7.28-13.73-7.28,0,0-2.14-2.05-5.07-4.86-2.93-2.81-5.78-3.75-5.78-3.75,0,0,1.07,2.8,4,5.61Z"/><path class="cls-4" d="M185.94,186.31l14.71-8.35,1.46,2.56-2.9,11.82,1.53,2.69,1.94,.43,4.16-7.04-.95-2.53s1.1,1.8,2.34,2.55l1.62-.92s-.26-1.47-.6-2.08l.21-.12c.35,.61,1.51,1.57,1.51,1.57l1.62-.92c-.01-1.45-.99-3.31-.99-3.31l1.68,2.11,8.18,.04,.62-1.89-1.53-2.69-11.63-3.57-1.46-2.56,14.71-8.35,.31-1.31-4.44-7.81c-.12,1.36,1.18,3.36,1.18,3.36l-6.68-.24,.59,1.04-10.92-.18c-3.38-6.8-12.05-11.89-12.05-11.89,0,0-1.59-2.81-3.78-6.65-2.18-3.85-4.86-5.72-4.86-5.72,0,0,.24,3.26,2.42,7.1,2.18,3.85,3.78,6.65,3.78,6.65,0,0-.08,10.06,4.03,16.44l-5.44,9.47-.59-1.04-3.21,5.86s-1.06-2.15-2.28-2.74l4.44,7.81,1.28,.4Z"/><path class="cls-4" d="M262.2,147.08v4.41l-12.48,13.22v4.62l2.2,1.99,10.6-6.08,.63-3.99s.1,3.15,1.15,5.04h2.78s.75-2.1,.75-3.15h.36c0,1.05,.8,3.15,.8,3.15h2.78c1.05-1.89,1.15-5.04,1.15-5.04l.63,3.99,10.6,6.08,2.2-1.99v-4.62l-12.48-13.22v-4.41h25.28l1.36-1.47v-13.43c-1.15,1.68-.94,5.25-.94,5.25l-8.5-5.25v1.78l-14.06-8.29c.63-11.33-6.89-24.34-6.89-24.34v-11.44c0-6.61-2.09-11.02-2.09-11.02,0,0-2.09,4.41-2.09,11.02v11.44s-7.52,13.01-6.89,24.34l-14.06,8.29v-1.78l-8.5,5.25s.21-3.57-.94-5.25v13.43l1.36,1.47h25.28Z"/><path class="cls-4" d="M398.33,197.88l-5.07,4.86s-2.58,8.86-7.87,13.4l2.29,9.76,.79-.76,1.28,6s1.49-1.61,2.73-1.81l-5.96,5.71-1.23,.02-10.74-11.22-1.96,1.87-.56,11.16-2.05,1.96-1.82-.13-1.8-7.29,1.5-1.97s-1.44,1.29-2.72,1.63l-1.18-1.23s.61-1.22,1.08-1.67l-.15-.16c-.47,.45-1.74,.98-1.74,.98l-1.18-1.23c.39-1.27,1.74-2.65,1.74-2.65l-2.04,1.41-7.2-2.12-.05-1.82,2.05-1.96,11.17-.08,1.96-1.87-10.74-11.22,.07-1.23,5.96-5.71c-.25,1.23-1.93,2.65-1.93,2.65l5.94,1.54-.79,.76,9.65,2.72c4.76-5.09,13.73-7.28,13.73-7.28,0,0,2.14-2.05,5.07-4.86,2.93-2.81,5.78-3.75,5.78-3.75,0,0-1.07,2.8-4,5.61Z"/><path class="cls-4" d="M350.13,186.31l-14.71-8.35-1.46,2.56,2.9,11.82-1.53,2.69-1.94,.43-4.16-7.04,.95-2.53s-1.1,1.8-2.34,2.55l-1.62-.92s.26-1.47,.6-2.08l-.21-.12c-.35,.61-1.51,1.57-1.51,1.57l-1.62-.92c.01-1.45,.99-3.31,.99-3.31l-1.68,2.11-8.18,.04-.62-1.89,1.53-2.69,11.63-3.57,1.46-2.56-14.71-8.35-.31-1.31,4.44-7.81c.12,1.36-1.18,3.36-1.18,3.36l6.68-.24-.59,1.04,10.92-.18c3.38-6.8,12.05-11.89,12.05-11.89,0,0,1.59-2.81,3.78-6.65,2.18-3.85,4.86-5.72,4.86-5.72,0,0-.24,3.26-2.42,7.1-2.18,3.85-3.78,6.65-3.78,6.65,0,0,.08,10.06-4.03,16.44l5.44,9.47,.59-1.04,3.21,5.86s1.06-2.15,2.28-2.74l-4.44,7.81-1.28,.4Z"/></g></g></svg>