<?xml version="1.0" encoding="UTF-8"?><svg id="Layer_2" xmlns="http://www.w3.org/2000/svg" viewBox="0 0 25.92 36.88"><defs><style>.cls-1{fill:#223c8c;}</style></defs><g id="Layer_3"><path class="cls-1" d="M10.63,27.21v1.76l-4.98,5.27v1.84l.88,.8,4.23-2.43,.25-1.59s.04,1.26,.46,2.01h1.11s.3-.84,.3-1.26h.14c0,.42,.32,1.26,.32,1.26h1.11c.42-.75,.46-2.01,.46-2.01l.25,1.59,4.23,2.43,.88-.8v-1.84l-4.98-5.27v-1.76h10.09l.54-.59v-5.36c-.46,.67-.38,2.09-.38,2.09l-3.39-2.09v.71l-5.61-3.31c.25-4.52-2.75-9.71-2.75-9.71V4.4c0-2.64-.84-4.4-.84-4.4,0,0-.84,1.76-.84,4.4v4.56s-3,5.19-2.75,9.71l-5.61,3.31v-.71L.38,23.36s.08-1.42-.38-2.09v5.36l.54,.59H10.63Z"/></g></svg>