<?xml version="1.0" encoding="UTF-8"?><svg id="Layer_2" xmlns="http://www.w3.org/2000/svg" viewBox="0 0 295.36 88.54"><defs><style>.cls-1{fill:#f1b51c;}.cls-2{fill:#223c8c;}</style></defs><g id="Layer_3"><path class="cls-2" d="M143.36,29.12v1.88l-5.33,5.65v1.97l.94,.85,4.53-2.6,.27-1.7s.04,1.34,.49,2.15h1.19s.32-.9,.32-1.34h.15c0,.45,.34,1.34,.34,1.34h1.19c.45-.81,.49-2.15,.49-2.15l.27,1.7,4.53,2.6,.94-.85v-1.97l-5.33-5.65v-1.88h10.8l.58-.63v-5.74c-.49,.72-.4,2.24-.4,2.24l-3.63-2.24v.76l-6-3.54c.27-4.84-2.94-10.4-2.94-10.4V4.7c0-2.82-.89-4.7-.89-4.7,0,0-.89,1.88-.89,4.7v4.88s-3.21,5.56-2.94,10.4l-6,3.54v-.76l-3.63,2.24s.09-1.52-.4-2.24v5.74l.58,.63h10.8Z"/><g><path class="cls-1" d="M140.48,87.69l.13-.04s.05,0,.07,.02l.16,.2s.01,.02,.01,.03l.02,.12s.01,.03,.02,.04l.16,.13s.1,0,.1-.05v-1.04s.02-.06,.05-.06h11.57s.06-.03,.06-.06v-9.67s-.03-.06-.06-.06h-19.9s-.06,.03-.06,.06v2.49s0,.03,.01,.04l.22,.29s.01,.01,.02,.02l.06,.04s.02,.02,.03,.04l.04,.13s.01,.02,.02,.03l.13,.09s.02,.02,.02,.04l.04,.21s0,.04-.01,.05l-.04,.05s-.02,.06,0,.08l.09,.12s.01,.08-.02,.09c-.04,.02-.04,.07-.01,.1l.32,.32s.02,.01,.03,.02l.27,.06s.03,.01,.04,.03l.4,.65s.01,.01,.02,.02l.18,.12s.03,.03,.03,.05v.11s0,.03,.02,.04l.22,.23s.03,.02,.05,.02h.13s.03,0,.04,.02l.03,.03s.03,.06,0,.09h0s-.02,.07,0,.09l.03,.04s.04,.03,.06,.02l.31-.08s.08,.02,.08,.07l-.03,.4h0l-.15,.44v.18s-.02,.04-.04,.05l-.07,.05s-.03,.05-.02,.08l.13,.31h0l.07,.25s0,.06-.03,.07l-.16,.08s-.04,.04-.04,.07l.04,.28s0,.03-.01,.05l-.05,.07s-.01,.02-.01,.04v.1s.02,.06,.06,.06h.1s.03,.02,.04,.03l.15,.15s.08,.02,.1-.01l.07-.12s.03-.03,.05-.03h.11s.04-.01,.05-.03l.18-.28s.08-.04,.11,0l.06,.1s.02,.03,.04,.03l.09,.02s.04,.03,.05,.05l.08,.42h0l.29,.65s.01,.02,.02,.03l.17,.1s.03,.03,.03,.05v.18s0,.04-.03,.05l-.04,.03s-.03,.06-.01,.09l.19,.24s.04,.03,.06,.02l.16-.02s.03,0,.04,0l.11,.07s.02,.02,.03,.03l.14,.3v.02l.04,.31s0,.02,.01,.03l.25,.29s.05,.03,.07,.02h0s.04-.04,.04-.07l-.02-.1s0-.04,.02-.05l.09-.1s.04-.02,.06-.02l.5,.1s.06-.01,.07-.05l.02-.09s.01-.02,.02-.03l.08-.07s.04-.02,.07,0l.25,.11s.03,0,.05,0l.25-.1s.05,0,.06,.01l.07,.06s.03,.02,.05,.02l.42-.06s.05-.02,.05-.05l.07-.31s.02-.04,.04-.05Z"/><g><path class="cls-1" d="M115.29,84.48v-3.12l1.14-1.14h2.09l.26-.25v-1.1l-.27-.26h-2.99v-1.39h3.9l1.01,1v2.34l-1.01,1.01h-2.12l-.35,.35v1.14h3.46v1.4h-5.11Z"/><path class="cls-1" d="M123.55,84.48l-1.23-1.23v-4.78l1.23-1.23h3.01l1.23,1.23v4.78l-1.23,1.23h-3.01Zm.86-1.39h1.29l.42-.42v-3.62l-.42-.42h-1.29l-.43,.42v3.62l.43,.42Z"/></g><g><path class="cls-1" d="M158.47,84.48v-3.12l1.14-1.14h2.09l.26-.25v-1.1l-.27-.26h-2.99v-1.39h3.9l1.01,1v2.34l-1.01,1.01h-2.12l-.35,.35v1.14h3.46v1.4h-5.11Z"/><path class="cls-1" d="M165.22,84.48v-1.39h3.14l.34-.33v-1l-.33-.33h-2.02v-1.3h1.89l.3-.3v-.94l-.26-.26h-2.97v-1.39h3.91l.97,.97v1.78l-.64,.66,.81,.81v1.98l-1.05,1.05h-4.1Z"/></g><g><path class="cls-2" d="M178.35,83.51v-5.21h1.48l.43,3.28h.11l.43-3.28h1.47v5.21h-.9v-3.82h-.13l-.42,3.16h-1.02l-.42-3.16h-.13v3.82h-.9Z"/><path class="cls-2" d="M185.51,83.51l-.68-.68v-3.86l.68-.68h1.47l.68,.68v3.86l-.68,.68h-1.47Zm.51-.8h.45l.22-.22v-3.17l-.22-.22h-.45l-.22,.22v3.17l.22,.22Z"/><path class="cls-2" d="M190.2,83.51v-5.21h1.48l.66,3.96h.13v-3.96h.87v5.21h-1.48l-.66-3.96h-.13v3.96h-.87Z"/><path class="cls-2" d="M196.42,83.51v-4.41h-.87v-.8h2.7v.8h-.87v4.41h-.96Z"/><path class="cls-2" d="M202.33,78.3l.78,4.88v.34h-.92l-.16-1.22h-.96l-.17,1.22h-.9v-.34l.8-4.88h1.54Zm-1.16,3.19h.75l-.31-2.25h-.13l-.31,2.25Z"/><path class="cls-2" d="M205.46,83.51v-5.21h1.48l.66,3.96h.13v-3.96h.87v5.21h-1.48l-.66-3.96h-.13v3.96h-.87Z"/><path class="cls-2" d="M213.27,78.3l.78,4.88v.34h-.92l-.16-1.22h-.96l-.17,1.22h-.9v-.34l.8-4.88h1.54Zm-1.16,3.19h.75l-.31-2.25h-.13l-.31,2.25Z"/></g><g><path class="cls-2" d="M76.5,83.51v-5.21h2.05l.6,.6v1.5l-.37,.37,.48,.49v1.59l-.67,.67h-2.08Zm.96-3.06h.57l.15-.15v-1.06l-.17-.17h-.55v1.38Zm0,2.29h.59l.25-.25v-1.09l-.22-.22h-.61v1.56Z"/><path class="cls-2" d="M80.8,83.51v-.77h.48v-3.68h-.48v-.77h1.93v.77h-.48v3.68h.48v.77h-1.93Z"/><path class="cls-2" d="M84.39,83.51v-5.21h.96v4.38h1.25v.83h-2.21Z"/><path class="cls-2" d="M88.08,83.51v-5.21h.96v4.38h1.25v.83h-2.21Z"/><path class="cls-2" d="M91.59,83.51v-.77h.48v-3.68h-.48v-.77h1.93v.77h-.48v3.68h.48v.77h-1.93Z"/><path class="cls-2" d="M95.18,83.51v-5.21h1.48l.66,3.96h.13v-3.96h.87v5.21h-1.48l-.66-3.96h-.13v3.96h-.87Z"/><path class="cls-2" d="M100.8,83.51l-.68-.68v-3.86l.68-.68h1.91v.8h-1.41l-.22,.22v3.17l.22,.22h.49l.22-.22v-1.26h-.51v-.77h1.44v2.37l-.68,.68h-1.47Z"/><path class="cls-2" d="M104.55,83.51v-.8h1.33l.18-.18v-1.09l-.18-.18h-.77l-.63-.63v-1.71l.63-.63h1.82v.8h-1.3l-.18,.18v1.01l.18,.18h.77l.63,.63v1.79l-.63,.63h-1.85Z"/></g></g><g><path class="cls-2" d="M3.71,32.49v-5.64L0,16.3H2.94l2.11,6.79,2.11-6.79h2.94l-3.71,10.54v5.64H3.71Z"/><path class="cls-2" d="M12.57,16.3h7.75v2.62h-5.05v4.02h3.75v2.62h-3.75v4.3h5.05v2.62h-7.75V16.3Z"/><path class="cls-2" d="M23.17,32.49V16.3h2.73v13.57h4.71v2.62h-7.43Z"/><path class="cls-2" d="M33.14,32.49V16.3h2.73v13.57h4.71v2.62h-7.43Z"/><path class="cls-2" d="M51.2,31.17l-1.32,1.32h-5.45l-1.32-1.32v-13.54l1.32-1.32h5.45l1.32,1.32v13.54Zm-5.09-12.22l-.3,.3v10.33l.3,.3h2.04l.32-.3v-10.33l-.32-.3h-2.04Z"/><path class="cls-2" d="M63.53,32.49l-1.68-11.12-1.68,11.12h-3.41l-3.09-16.18h2.75l2,11.69,1.94-11.69h2.98l1.94,11.69,2-11.69h2.75l-3.09,16.18h-3.41Z"/><path class="cls-2" d="M77.75,19.26l-.32-.32h-2.07l-.32,.32v3.36l.32,.32h3.79l1.32,1.32v6.9l-1.32,1.32h-5.49l-1.32-1.32v-3.34h2.7v1.72l.32,.32h2.07l.32-.32v-3.66l-.32-.32h-3.77l-1.32-1.32v-6.62l1.32-1.32h5.49l1.32,1.32v3.34h-2.73v-1.7Z"/><path class="cls-2" d="M88.49,18.92v13.56h-2.7v-13.56h-2.92v-2.62h8.54v2.62h-2.92Z"/><path class="cls-2" d="M102.03,31.17l-1.32,1.32h-5.45l-1.32-1.32v-13.54l1.32-1.32h5.45l1.32,1.32v13.54Zm-5.09-12.22l-.3,.3v10.33l.3,.3h2.04l.32-.3v-10.33l-.32-.3h-2.04Z"/><path class="cls-2" d="M105.19,16.3h2.92l3.51,9.92v-9.92h2.7v16.18h-2.92l-3.51-9.92v9.92h-2.7V16.3Z"/><path class="cls-2" d="M117.47,16.3h7.75v2.62h-5.05v4.02h3.75v2.62h-3.75v4.3h5.05v2.62h-7.75V16.3Z"/></g><g><path class="cls-2" d="M167.94,16.3h2.7v16.18h-2.7V16.3Z"/><path class="cls-2" d="M173.37,16.3h2.92l3.51,9.92v-9.92h2.7v16.18h-2.92l-3.51-9.92v9.92h-2.7V16.3Z"/><path class="cls-2" d="M190.24,18.92v13.56h-2.7v-13.56h-2.92v-2.62h8.54v2.62h-2.92Z"/><path class="cls-2" d="M195.27,16.3h7.75v2.62h-5.05v4.02h3.75v2.62h-3.75v4.3h5.05v2.62h-7.75V16.3Z"/><path class="cls-2" d="M205.45,16.3h6.99l1.32,1.32v7.24l-1.32,1.32,1.32,6.3h-2.66l-1.32-6.3h-1.62v6.3h-2.7V16.3Zm5.6,6.94v-4l-.3-.3h-2.6v4.62h2.6l.3-.32Z"/><path class="cls-2" d="M216.31,16.3h2.92l3.51,9.92v-9.92h2.7v16.18h-2.92l-3.51-9.92v9.92h-2.7V16.3Z"/><path class="cls-2" d="M230.98,28.99l-.72,3.49h-2.77l3.83-16.18h2.64l3.83,16.18h-2.77l-.72-3.49h-3.32Zm1.66-8.07l-1.13,5.45h2.26l-1.13-5.45Z"/><path class="cls-2" d="M243.12,18.92v13.56h-2.7v-13.56h-2.92v-2.62h8.54v2.62h-2.92Z"/><path class="cls-2" d="M248.15,16.3h2.7v16.18h-2.7V16.3Z"/><path class="cls-2" d="M261.67,31.17l-1.32,1.32h-5.45l-1.32-1.32v-13.54l1.32-1.32h5.45l1.32,1.32v13.54Zm-5.09-12.22l-.3,.3v10.33l.3,.3h2.04l.32-.3v-10.33l-.32-.3h-2.04Z"/><path class="cls-2" d="M264.4,16.3h2.92l3.51,9.92v-9.92h2.7v16.18h-2.92l-3.51-9.92v9.92h-2.7V16.3Z"/><path class="cls-2" d="M279.07,28.99l-.72,3.49h-2.77l3.83-16.18h2.64l3.83,16.18h-2.77l-.72-3.49h-3.32Zm1.66-8.07l-1.13,5.45h2.26l-1.13-5.45Z"/><path class="cls-2" d="M287.93,32.49V16.3h2.73v13.57h4.71v2.62h-7.43Z"/></g><path class="cls-2" d="M244.29,58.24c-.15-.65-.48-1.27-.97-1.85-.15-.18-.35-.38-.63-.59-.27-.21-.61-.42-1-.61-.39-.19-.84-.35-1.35-.46-.51-.11-1.08-.14-1.72-.08-.31,.03-.65,.08-1.02,.15-.38,.07-.76,.19-1.15,.35-.39,.17-.76,.4-1.13,.7-.37,.3-.7,.69-.98,1.18-.41,.67-.63,1.3-.66,1.9-.03,.6,.03,1.14,.19,1.63,.16,.49,.39,.89,.68,1.22,.3,.33,.56,.57,.81,.72,0,0-.42-4.45,2.64-4.43,.08,0,.17,0,.26,0,.02,0,.03,0,.05,0,.29,.03,.51,.09,.68,.18h.02s.03,.03,.05,.04c.5,.23,.83,.62,.97,1.16,.15,.57,.05,1.21-.3,1.91-.21,.4-.64,1.03-1.27,1.89-.63,.87-1.48,1.76-2.54,2.67-.73,.63-1.55,1.21-2.44,1.74-.9,.53-1.73,1-2.49,1.4-.9,.48-1.8,.91-2.69,1.27-.72-1.27-1.13-2.53-1.25-3.75-.12-1.23-.03-2.55,.29-3.98,.13-.63,.36-1.33,.69-2.09,.32-.76,.68-1.5,1.08-2.22,.39-.72,.77-1.4,1.14-2.04,.37-.64,.64-1.15,.81-1.52-1.52-.16-3.03-.32-4.55-.48-.16,.21-.38,.58-.66,1.1-.29,.52-.59,1.15-.91,1.88-.33,.73-.64,1.54-.96,2.43-.32,.89-.58,1.85-.78,2.86-.11,.44-.18,1.13-.23,2.07-.04,.94,.06,1.88,.29,2.85-.58,.23-1.19,.47-1.81,.7-.63,.23-1.18,.44-1.65,.62-.58,.21-1.12,.4-1.62,.58-.35-.45-.62-1.01-.83-1.68-.2-.67-.33-1.37-.4-2.1-.07-.73-.07-1.46-.03-2.16,.05-.71,.12-1.32,.24-1.82,.11-.54,.33-1.16,.64-1.86,.31-.7,.65-1.42,1.01-2.17,.37-.74,.72-1.45,1.07-2.14,.35-.68,.62-1.24,.83-1.67-1.45-.14-2.91-.27-4.36-.39-.23,.34-.53,.84-.9,1.5-.38,.66-.76,1.42-1.14,2.28-.39,.86-.73,1.81-1.03,2.85-.3,1.04-.48,2.13-.55,3.25-.06,1.16,.07,2.24,.41,3.25-.92,.47-1.84,.93-2.76,1.4-.58,.31-1.25,.55-2.01,.71-.42,.1-.91,.06-1.43-.11-.52-.17-1.02-.61-1.49-1.32,.73-.66,1.42-1.38,2.07-2.17,.54-.7,1.08-1.54,1.6-2.52,.52-.98,.86-2.06,1.02-3.24,.18-1.02,.12-1.96-.2-2.83-.31-.87-.78-1.62-1.39-2.27-.61-.65-1.36-1.16-2.25-1.55-.89-.39-1.82-.62-2.82-.69-1.32-.09-2.67,.07-4.05,.5-1.37,.43-2.65,1.06-3.85,1.89-1.19,.83-2.23,1.83-3.12,2.99-.89,1.16-1.55,2.41-1.98,3.74-.43,1.24-.58,2.42-.46,3.56,.04,.41,.13,.8,.22,1.18-.51,.28-1.01,.56-1.52,.84-.7,.42-1.41,.62-2.13,.62-.72,0-1.29-.21-1.73-.61-.43-.41-.63-.89-.59-1.45,.04-.56,.13-.97,.28-1.22,.83-1.74,1.66-3.47,2.5-5.21,.69-1.42,1.06-2.63,1.09-3.62,.04-1-.14-1.81-.52-2.45-.38-.63-.93-1.09-1.65-1.39-.72-.29-1.49-.46-2.32-.49-1.26-.02-2.37,.16-3.33,.54-.96,.38-1.66,.69-2.1,.94,2.13-4.49,6.57-13.5,6.57-13.5h-5.05s-9.5,20.15-14.04,30.36c1.54,.03,3.07,.07,4.61,.11,2.24-4.84,4.51-9.67,6.83-14.48,1.99-1.28,3.52-1.76,4.56-1.42,.88,.26,1.41,.78,1.57,1.54,.17,.77,.06,1.51-.29,2.24-.85,1.79-1.7,3.57-2.53,5.36-.5,1.08-.73,2.02-.7,2.83,.03,.81,.17,1.43,.41,1.86,.33,.66,.88,1.28,1.65,1.86,.77,.58,1.72,.9,2.85,.95,.68,.03,1.38-.03,2.12-.19,.73-.16,1.48-.44,2.25-.85,.69-.38,1.38-.77,2.08-1.15,.56,.8,1.28,1.46,2.18,1.97,.96,.54,2.06,.85,3.32,.93,.9,.06,1.85,0,2.83-.16,.98-.16,2.1-.57,3.34-1.22,.51,.62,1.05,1.11,1.62,1.47,.57,.37,1.25,.54,2.03,.54,.74,.02,1.47-.07,2.16-.27,.7-.2,1.43-.5,2.21-.89,1.05-.54,2.1-1.07,3.15-1.61,.12,.23,.24,.46,.37,.67,.47,.77,.95,1.41,1.44,1.92,.49,.51,.84,.84,1.06,.99,.33-.04,.8-.11,1.43-.23,.63-.12,1.19-.25,1.7-.4,.2-.08,.49-.18,.86-.31,.37-.13,.76-.25,1.16-.37,.41-.12,.81-.26,1.21-.42,.41-.15,.76-.28,1.07-.38,.47,.82,.96,1.51,1.46,2.04,.5,.54,.85,.88,1.06,1.03,0,0,8.58-.82,14.61-7.27,.58-.59,1.1-1.25,1.56-1.97,.33-.54,.64-1.12,.91-1.74,.28-.61,.45-1.24,.54-1.88,.08-.64,.05-1.29-.11-1.94Zm-42.84-2.45c-.45,.7-.8,1.45-1.07,2.25-.27,.81-.45,1.66-.54,2.56-.09,.9-.07,1.79,.07,2.67,.14,.88,.34,1.65,.61,2.29,.26,.65,.47,1.11,.62,1.37-.87,.81-1.74,1.32-2.61,1.52-.87,.2-1.63,.2-2.27,0-.99-.29-1.66-.99-2.02-2.11-.3-.92-.37-1.97-.21-3.14,.16-1.17,.54-2.33,1.14-3.49,.22-.47,.59-1.04,1.11-1.7,.52-.66,1.13-1.3,1.85-1.92,.72-.62,1.49-1.12,2.31-1.52,.82-.4,1.66-.57,2.52-.51-.56,.45-1.06,1.02-1.51,1.71Zm2.23,8.95c-.27-.34-.46-.78-.57-1.32-.11-.54-.18-1.1-.22-1.69-.04-.58-.04-1.13,0-1.65,.03-.37,.05-.74,.08-1.11,.1-.54,.26-1.07,.46-1.59,.2-.52,.42-.98,.64-1.38,.26-.47,.54-.9,.84-1.3,.32,.15,.6,.38,.84,.69,.21,.27,.39,.62,.54,1.03,.16,.42,.22,.95,.2,1.59-.03,1.29-.28,2.48-.74,3.58-.46,1.1-1.15,2.14-2.07,3.15Zm-70.82,.65c-.22,.17-.57,.35-1.03,.56-.47,.21-.95,.37-1.45,.5-.5,.13-1,.17-1.5,.14-.5-.03-.94-.19-1.3-.47-.6-.53-.92-1.23-.95-2.1-.03-.9,.29-2.19,.95-3.85,.12-.26,.56-1.08,1.33-2.46,.77-1.38,1.84-3.05,3.25-5.02-.49-.47-.98-.94-1.48-1.41-1.36,1.07-2.83,1.93-4.41,2.58-1.58,.65-3.27,.96-5.09,.94,.17-.65,.23-1.44,.18-2.35-.05-.92-.43-1.78-1.12-2.59-.28-.34-.64-.65-1.09-.92-.44-.27-.94-.47-1.47-.59-.54-.12-1.09-.16-1.65-.12-.56,.04-1.12,.21-1.68,.49-.62,.32-1.11,.74-1.46,1.26-.36,.52-.59,1.09-.71,1.71-.12,.62-.11,1.23,.04,1.84,.15,.61,.43,1.17,.86,1.7,.25,.31,.54,.59,.88,.85,.34,.26,.68,.47,1.02,.65,.34,.18,.66,.33,.98,.46,.32,.13,.58,.22,.78,.28-.11,.39-.29,.85-.53,1.38-.21,.46-.47,.98-.79,1.56-.32,.58-.74,1.22-1.26,1.92-.36,.53-.78,1.08-1.24,1.64-.46,.56-.96,1.04-1.49,1.46-.56,.48-1.17,.97-1.82,1.46-.22,.16-.46,.31-.7,.44-.12,.03-.24,.06-.37,.08-.44,.07-.85,.09-1.24,.05-.39-.04-.72-.18-1-.42-.21-.21-.35-.46-.41-.75-.07-.29-.08-.58-.05-.87,.03-.29,.09-.56,.17-.81,.08-.25,.14-.44,.16-.57,.77-2.19,1.54-4.39,2.32-6.58,.42-1.25,.6-2.24,.52-2.98-.07-.74-.29-1.32-.64-1.73-.36-.42-.79-.68-1.32-.8-.52-.11-1-.16-1.43-.13-1.24,.07-2.48,.15-3.72,.23-.23,.61-.45,1.22-.68,1.84,.56-.04,1.12-.07,1.68-.11,.36-.02,.64,.02,.83,.12,.19,.1,.37,.26,.55,.47,.11,.16,.17,.39,.19,.71,.02,.32-.08,.81-.3,1.47-.8,2.29-1.59,4.59-2.36,6.89-.21,.66-.33,1.34-.36,2.04-.73,.46-1.46,.92-2.19,1.38-.53,.33-1.15,.62-1.84,.88-.7,.26-1.29,.38-1.78,.35-.43-.03-.86-.15-1.3-.34-.44-.19-.81-.48-1.09-.86-.29-.38-.48-.88-.56-1.48-.08-.61,0-1.33,.27-2.16,2.25-7.06,4.58-14.12,6.98-21.16,.23-.63,.52-1.08,.87-1.34,.35-.27,.68-.41,.98-.43,.31-.94,.62-1.88,.93-2.82-2.41,.15-4.82,.32-7.23,.49-1.48,.11-2.9,.33-4.24,.66-1.35,.33-2.69,.97-4.03,1.93-1.21,.88-2.25,2-3.1,3.37-.86,1.37-1.61,2.7-2.26,3.99-.65,1.32-1.3,2.64-1.94,3.97-.76-.61-1.38-1.11-1.87-1.5-.49-.39-.97-.76-1.44-1.1-.47-.31-.94-.62-1.43-.93-.49-.31-.99-.6-1.53-.87-1.06-.51-2.22-.86-3.47-1.05-1.25-.19-2.63-.09-4.14,.31-1.05,.28-2.09,.83-3.1,1.65-1.02,.82-1.71,1.93-2.08,3.34-.2,.8-.22,1.51-.05,2.12,.17,.61,.44,1.14,.79,1.58,.35,.44,.76,.81,1.21,1.1,.45,.29,.85,.51,1.2,.66h0v-.03c0-.12,0-.25,0-.38,.02-1.11,.34-4.16,3.12-5.18,3.48-1.28,5.96,.55,7.51,1.51,1.18,.73,2.94,1.73,3.71,2.17-1.88,3.79-3.73,7.59-5.54,11.39-.54,1.13-1.17,2.18-1.89,3.17-.73,.99-1.63,1.61-2.71,1.86-.67,.14-1.3,.13-1.89-.03-.59-.16-1.11-.41-1.56-.74-.45-.34-.81-.73-1.07-1.19-.27-.46-.43-.89-.48-1.31-.14-1.15,0-2.06,.39-2.72,.4-.66,.91-1.15,1.51-1.44,.61-.3,1.22-.43,1.83-.41,.61,.03,1.03,.13,1.25,.3,.13-.92,.04-1.7-.26-2.33-.3-.63-.74-1.11-1.3-1.43-.57-.32-1.23-.51-1.98-.55-.75-.04-1.52,.08-2.32,.37-.67,.21-1.31,.61-1.92,1.21-.61,.59-1.11,1.31-1.5,2.13-.39,.83-.62,1.75-.67,2.76-.05,1.01,.15,2.06,.62,3.14,.38,.9,.9,1.64,1.56,2.24,.66,.6,1.38,1.07,2.14,1.42,.76,.35,1.54,.59,2.34,.74,.8,.15,1.51,.2,2.12,.17,1.17-.04,2.28-.29,3.33-.77,1.06-.47,2.04-1.12,2.97-1.93,.92-.81,1.78-1.77,2.54-2.87,.77-1.1,1.45-2.29,2.05-3.58,1.25-2.67,2.51-5.33,3.79-7.99,.38,.19,.95,.36,1.69,.5,.74,.14,1.33,.23,1.76,.25,.6,.04,1.2,.04,1.79-.01,.59-.05,1.11-.13,1.57-.23,.55-.11,1.05-.25,1.5-.42-.54,1.65-1.08,3.29-1.62,4.94-.24,.73-.42,1.48-.55,2.23-.13,.76-.17,1.49-.13,2.2,.04,.71,.21,1.38,.49,2.02,.28,.64,.74,1.21,1.37,1.7,.63,.5,1.3,.85,2.04,1.04,.73,.2,1.47,.29,2.23,.26,.76-.03,1.5-.16,2.21-.41,.71-.25,1.35-.55,1.9-.92,1.27-.84,2.54-1.68,3.82-2.51,.04,.08,.07,.17,.11,.25,.3,.63,.79,1.21,1.48,1.74,.68,.54,1.45,.84,2.29,.92,.48,.04,.94,.04,1.38,0l-.04,.04c9.15-.45,13.36-12.61,13.38-12.62,.66,0,1.26-.05,1.79-.17,.54-.12,1.02-.25,1.44-.39,.42-.14,.76-.29,1.02-.42,.26-.14,.44-.22,.53-.26,.26-.11,.58-.28,.97-.52,.38-.24,.76-.48,1.11-.71,.42-.27,.88-.56,1.36-.86-2.09,1.68-3.73,3.42-4.91,5.22-1.18,1.8-1.75,3.56-1.71,5.27-.01,.58,.09,1.11,.31,1.58,.21,.48,.46,.89,.73,1.23,.37,.5,.81,.86,1.3,1.09,.49,.22,.85,.36,1.08,.42,.29,.05,.7,.1,1.22,.15,.52,.05,1.07,.04,1.67,0,.6-.05,1.21-.17,1.83-.34,.62-.18,1.22-.44,1.8-.77,1.78-1.13,3.57-2.25,5.37-3.36-.18-.74-.35-1.48-.53-2.21-1.3,.85-2.6,1.7-3.9,2.55Zm-42.25-9.92c-.09,.04-.29,.09-.58,.14-.29,.06-.64,.1-1.03,.13-.39,.03-.83,.04-1.29,.04-.47,0-.9-.08-1.31-.2-.38-.13-.76-.28-1.16-.46-.4-.18-.75-.35-1.07-.51-.39-.19-.75-.4-1.1-.63,.91-1.91,1.82-3.82,2.75-5.73,.29-.57,.59-1.17,.9-1.8,.32-.63,.68-1.22,1.08-1.79,.41-.57,.86-1.1,1.36-1.59,.5-.49,1.06-.88,1.68-1.15,.62-.31,1.21-.52,1.77-.65,.56-.12,1.08-.24,1.54-.34,.53-.1,1.03-.16,1.51-.16-1.72,4.89-3.4,9.79-5.04,14.69Zm27.31-2.63c-.06,.2-.11,.41-.15,.64-.04,.23-.09,.44-.15,.64-.06,.23-.11,.46-.17,.69-1.99-.2-3.02-1.04-3.09-2.52-.03-.68,.16-1.21,.59-1.6,.43-.39,.88-.57,1.35-.52,.57,.07,1.01,.33,1.33,.76,.32,.44,.41,1.08,.28,1.92Zm-9.45-3.74c.8-.04,1.56-.36,2.27-.95,.72-.59,1.18-1.29,1.37-2.11,.16-.75,.04-1.33-.37-1.75-.41-.41-.95-.6-1.61-.57-.8,.04-1.56,.36-2.29,.95-.72,.59-1.18,1.28-1.36,2.06-.16,.75-.04,1.34,.35,1.77,.39,.43,.94,.62,1.63,.58Zm57.83,6.53c-.09-.55-.17-1.04-.24-1.48-.07-.44-.17-.86-.29-1.26-.13-.41-.25-.81-.37-1.22-.11-.34-.24-.73-.39-1.15,4.51-.78,8.11-3.99,8.53-7.25,.09-.67,.12-1.35,0-2.05-.19-1.1-.63-2.08-1.35-2.94-.56-.66-1.26-1.2-2.13-1.61-.87-.41-1.89-.66-3.07-.75-.58-.04-1.28-.04-2.13,0-.85,.05-1.72,.23-2.62,.56-.9,.32-1.77,.83-2.63,1.51-.85,.68-1.58,1.63-2.2,2.85-.69,1.38-.91,2.79-.69,4.22,.14,.89,.35,1.76,.63,2.61-5.78-2.27-12.33-7.83-17.83-4.6-5.15,3.05-1.91,8.35-1.92,8.35,0-.02,.01-.04,.02-.05,.17-.46,1.56-3.89,5.27-4.76,3.98-.92,7.32,.28,10.27,1.39,1.67,.62,3.21,1.53,5.19,2.12,.31,.67,.62,1.35,.92,2.03,.43,.99,.79,2.02,1.07,3.08,.25,.87,.42,1.81,.5,2.81,.08,1-.01,1.98-.29,2.95-.28,.96-.74,1.89-1.41,2.79-.66,.89-1.46,1.65-2.39,2.27-.93,.62-1.96,1.05-3.07,1.28-1.12,.24-2.26,.18-3.42-.18-1.07-.32-1.97-.87-2.7-1.64-.73-.77-1.25-1.63-1.55-2.58-.3-.95-.36-1.92-.19-2.92,.17-1,.64-1.86,1.39-2.57,.59-.55,1.26-.92,2.02-1.12,.75-.19,1.4-.32,1.92-.39,.03-.97-.27-1.79-.91-2.47-.64-.68-1.48-1.03-2.5-1.06-.86-.03-1.78,.18-2.75,.64-.97,.46-1.86,1.3-2.67,2.54-.97,1.49-1.38,3.04-1.23,4.63,.15,1.59,.67,3.01,1.56,4.26,.79,1.15,1.84,2.12,3.14,2.9,1.3,.78,2.71,1.33,4.23,1.66,1.26,.26,2.61,.35,4.05,.28,1.44-.07,2.84-.34,4.22-.81,1.38-.47,2.69-1.17,3.94-2.1,1.25-.93,2.3-2.14,3.14-3.64,.71-1.24,1.08-2.51,1.11-3.8,.03-1.29-.03-2.4-.17-3.34Zm-2.85-8.91c-.19-.45-.38-.89-.55-1.32-.18-.42-.31-.73-.41-.93-.32-.78-.42-1.51-.29-2.2,.13-.69,.39-1.31,.79-1.85,.4-.54,.87-.99,1.44-1.35,.56-.36,1.12-.6,1.66-.72,.71-.15,1.35-.14,1.92,.02,.56,.16,1.06,.4,1.47,.74,.41,.33,.74,.72,.98,1.16,.24,.44,.37,.89,.39,1.34,0,.04,0,.08,0,.12h0c.25,4-3.47,5.81-6.72,6.59-.22-.55-.44-1.09-.67-1.61Z"/><polygon class="cls-1" points="12.97 7.74 14.93 10.26 138.69 10.26 140.08 7.74 12.97 7.74"/><polygon class="cls-1" points="254.41 38.7 252.46 41.23 188.11 41.23 189.22 38.7 254.41 38.7"/><polygon class="cls-1" points="278.86 7.74 276.9 10.26 153.15 10.26 151.75 7.74 278.86 7.74"/><g><path class="cls-1" d="M84.01,38.7H36.94l1.95,2.53h42.13c.88-1.05,1.98-1.89,2.98-2.53Z"/><polygon class="cls-1" points="106.8 38.7 106.12 41.23 132.55 41.23 132.55 38.7 106.8 38.7"/></g></g></svg>