<?xml version="1.0" encoding="UTF-8"?><svg id="Layer_2" xmlns="http://www.w3.org/2000/svg" viewBox="0 0 107.16 70.17"><defs><style>.cls-1{fill:#f1b51c;}.cls-2{fill:#223c8c;}</style></defs><g id="Layer_3"><path class="cls-1" d="M65.55,56.48l-7.18,5.22,2.76,8.47-7.19-5.23-7.21,5.23,2.76-8.47-7.16-5.22h8.85l2.76-8.43,2.74,8.43h8.86Z"/><path class="cls-2" d="M1.6,47.48l2.02,1.94s1.03,3.54,3.14,5.35l-.92,3.89-.32-.3-.51,2.39s-.6-.64-1.09-.72l2.38,2.28h.49l4.29-4.47,.78,.75,.22,4.45,.82,.78,.73-.05,.72-2.91-.6-.79s.58,.51,1.09,.65l.47-.49s-.24-.49-.43-.67l.06-.06c.19,.18,.69,.39,.69,.39l.47-.49c-.16-.51-.7-1.06-.7-1.06l.81,.56,2.87-.84,.02-.73-.82-.78-4.46-.03-.78-.75,4.29-4.48-.03-.49-2.38-2.28c.1,.49,.77,1.06,.77,1.06l-2.37,.62,.32,.3-3.85,1.08c-1.9-2.03-5.48-2.91-5.48-2.91,0,0-.85-.82-2.02-1.94-1.17-1.12-2.31-1.5-2.31-1.5,0,0,.43,1.12,1.6,2.24Z"/><path class="cls-2" d="M20.83,42.86l5.87-3.33,.58,1.02-1.16,4.72,.61,1.07,.77,.17,1.66-2.81-.38-1.01s.44,.72,.93,1.02l.65-.37s-.1-.59-.24-.83l.08-.05c.14,.24,.6,.63,.6,.63l.65-.37c0-.58-.4-1.32-.4-1.32l.67,.84,3.26,.02,.25-.75-.61-1.07-4.64-1.42-.58-1.02,5.87-3.33,.12-.52-1.77-3.12c-.05,.54,.47,1.34,.47,1.34l-2.66-.1,.24,.41-4.36-.07c-1.35-2.71-4.81-4.74-4.81-4.74,0,0-.64-1.12-1.51-2.66-.87-1.53-1.94-2.28-1.94-2.28,0,0,.09,1.3,.97,2.83,.87,1.53,1.51,2.66,1.51,2.66,0,0-.03,4.01,1.61,6.56l-2.17,3.78-.24-.41-1.28,2.34s-.42-.86-.91-1.09l1.77,3.12,.51,.16Z"/><path class="cls-2" d="M51.25,27.21v1.76l-4.98,5.27v1.84l.88,.8,4.23-2.43,.25-1.59s.04,1.26,.46,2.01h1.11s.3-.84,.3-1.26h.14c0,.42,.32,1.26,.32,1.26h1.11c.42-.75,.46-2.01,.46-2.01l.25,1.59,4.23,2.43,.88-.8v-1.84l-4.98-5.27v-1.76h10.09l.54-.59v-5.36c-.46,.67-.38,2.09-.38,2.09l-3.39-2.09v.71l-5.61-3.31c.25-4.52-2.75-9.71-2.75-9.71V4.4c0-2.64-.84-4.4-.84-4.4,0,0-.84,1.76-.84,4.4v4.56s-3,5.19-2.75,9.71l-5.61,3.31v-.71l-3.39,2.09s.08-1.42-.38-2.09v5.36l.54,.59h10.09Z"/><path class="cls-2" d="M105.57,47.48l-2.02,1.94s-1.03,3.54-3.14,5.35l.92,3.89,.32-.3,.51,2.39s.6-.64,1.09-.72l-2.38,2.28h-.49l-4.29-4.47-.78,.75-.22,4.45-.82,.78-.73-.05-.72-2.91,.6-.79s-.58,.51-1.09,.65l-.47-.49s.24-.49,.43-.67l-.06-.06c-.19,.18-.69,.39-.69,.39l-.47-.49c.16-.51,.7-1.06,.7-1.06l-.81,.56-2.87-.84-.02-.73,.82-.78,4.46-.03,.78-.75-4.29-4.48,.03-.49,2.38-2.28c-.1,.49-.77,1.06-.77,1.06l2.37,.62-.32,.3,3.85,1.08c1.9-2.03,5.48-2.91,5.48-2.91,0,0,.85-.82,2.02-1.94,1.17-1.12,2.31-1.5,2.31-1.5,0,0-.43,1.12-1.6,2.24Z"/><path class="cls-2" d="M86.34,42.86l-5.87-3.33-.58,1.02,1.16,4.72-.61,1.07-.77,.17-1.66-2.81,.38-1.01s-.44,.72-.93,1.02l-.65-.37s.1-.59,.24-.83l-.08-.05c-.14,.24-.6,.63-.6,.63l-.65-.37c0-.58,.4-1.32,.4-1.32l-.67,.84-3.26,.02-.25-.75,.61-1.07,4.64-1.42,.58-1.02-5.87-3.33-.12-.52,1.77-3.12c.05,.54-.47,1.34-.47,1.34l2.66-.1-.24,.41,4.36-.07c1.35-2.71,4.81-4.74,4.81-4.74,0,0,.64-1.12,1.51-2.66,.87-1.53,1.94-2.28,1.94-2.28,0,0-.09,1.3-.97,2.83-.87,1.53-1.51,2.66-1.51,2.66,0,0,.03,4.01-1.61,6.56l2.17,3.78,.24-.41,1.28,2.34s.42-.86,.91-1.09l-1.77,3.12-.51,.16Z"/></g></svg>